<svg width="15" height="16" viewBox="0 0 15 16" fill="none" xmlns="http://www.w3.org/2000/svg">
<path d="M0.277876 15V0.454545H9.90856V2.99006H3.35316V6.45597H9.26935V8.99148H3.35316V15H0.277876ZM13.0051 15.1847C12.5364 15.1847 12.1339 15.0189 11.7978 14.6875C11.4663 14.3513 11.3006 13.9489 11.3006 13.4801C11.3006 13.0161 11.4663 12.6184 11.7978 12.2869C12.1339 11.9555 12.5364 11.7898 13.0051 11.7898C13.4597 11.7898 13.8574 11.9555 14.1983 12.2869C14.5392 12.6184 14.7097 13.0161 14.7097 13.4801C14.7097 13.7926 14.6292 14.0791 14.4682 14.3395C14.312 14.5952 14.106 14.8011 13.8503 14.9574C13.5946 15.1089 13.3129 15.1847 13.0051 15.1847Z" fill="#040415"/>
</svg>
