<svg width="160" height="128" viewBox="0 0 160 128" fill="none" xmlns="http://www.w3.org/2000/svg">
<g filter="url(#filter0_d_596_6543)">
<g clip-path="url(#clip0_596_6543)">
<path d="M79.6999 52.8678H75.4199V61.5998H79.6999C82.6359 61.5998 84.3639 60.0118 84.3639 57.2478C84.3639 54.4878 82.6719 52.8638 79.6999 52.8638V52.8678Z" fill="#303C42"/>
<path d="M91.856 67.1998C91.856 68.6118 93.096 69.5118 95 69.5118C97.416 69.4758 99.28 67.9238 99.28 65.7478V64.4678L95.276 64.7478C93.032 64.8838 91.856 65.7118 91.856 67.1958V67.1998Z" fill="#303C42"/>
<path d="M132 16H28C23.588 16 20 19.588 20 24V96C20 100.412 23.588 104 28 104H132C136.412 104 140 100.412 140 96V24C140 19.588 136.412 16 132 16ZM54.684 42.424C55.836 41.076 57.788 40.064 59.4 40C59.604 41.876 58.852 43.756 57.736 45.112C56.616 46.464 54.784 47.512 52.988 47.376C52.74 45.536 53.648 43.624 54.684 42.424ZM63.844 68.028C62.508 69.976 61.124 71.92 58.944 71.956C56.8 71.996 56.112 70.688 53.664 70.688C51.212 70.688 50.448 71.92 48.42 71.996C46.316 72.076 44.712 69.888 43.368 67.948C40.616 63.976 38.52 56.724 41.34 51.828C42.74 49.392 45.244 47.852 47.96 47.816C50.024 47.776 51.98 49.204 53.24 49.204C54.504 49.204 56.876 47.484 59.368 47.736C60.408 47.78 63.34 48.156 65.22 50.912C65.068 51.004 61.724 52.952 61.76 57C61.804 61.84 66.008 63.456 66.056 63.472C66.016 63.588 65.384 65.772 63.844 68.028ZM80.496 64.468H75.416V71.964H72V50H80.6C84.844 50 87.852 52.936 87.852 57.216C87.852 61.496 84.812 64.468 80.492 64.468H80.496ZM102.56 71.928H99.42V69.168H99.348C98.452 70.96 96.38 72.1 94.136 72.1C90.784 72.136 88.508 70.168 88.508 67.232C88.508 64.332 90.748 62.672 94.828 62.396L99.28 62.156V60.876C99.28 58.98 98 57.944 95.828 57.944C94.028 57.944 92.72 58.876 92.444 60.292H89.368C89.472 57.356 92.236 55.212 95.928 55.212C99.968 55.212 102.56 57.356 102.56 60.6V71.928ZM113.82 72.688C112.404 76.66 110.848 77.936 107.464 77.936C107.026 77.9469 106.587 77.9242 106.152 77.868V75.176C106.392 75.244 106.912 75.244 107.192 75.244C108.744 75.244 109.64 74.588 110.192 72.824L110.432 71.964L104.424 55.388H107.984L112.232 68.888H112.3L116.548 55.388H120L113.82 72.688Z" fill="#303C42"/>
</g>
</g>
<defs>
<filter id="filter0_d_596_6543" x="0" y="0" width="160" height="128" filterUnits="userSpaceOnUse" color-interpolation-filters="sRGB">
<feFlood flood-opacity="0" result="BackgroundImageFix"/>
<feColorMatrix in="SourceAlpha" type="matrix" values="0 0 0 0 0 0 0 0 0 0 0 0 0 0 0 0 0 0 127 0" result="hardAlpha"/>
<feOffset dy="4"/>
<feGaussianBlur stdDeviation="10"/>
<feComposite in2="hardAlpha" operator="out"/>
<feColorMatrix type="matrix" values="0 0 0 0 0 0 0 0 0 0 0 0 0 0 0 0 0 0 0.3 0"/>
<feBlend mode="normal" in2="BackgroundImageFix" result="effect1_dropShadow_596_6543"/>
<feBlend mode="normal" in="SourceGraphic" in2="effect1_dropShadow_596_6543" result="shape"/>
</filter>
<clipPath id="clip0_596_6543">
<rect x="20" y="16" width="120" height="88" rx="8" fill="white"/>
</clipPath>
</defs>
</svg>
