<svg width="24" height="24" viewBox="0 0 24 24" fill="none" xmlns="http://www.w3.org/2000/svg">
<g clip-path="url(#clip0_487_6119)">
<path d="M18.5281 16.4689C18.2862 17.0279 17.9998 17.5424 17.6679 18.0155C17.2156 18.6604 16.8452 19.1068 16.5598 19.3547C16.1173 19.7616 15.6433 19.97 15.1357 19.9818C14.7712 19.9818 14.3317 19.8781 13.8201 19.6678C13.3069 19.4584 12.8352 19.3547 12.4039 19.3547C11.9516 19.3547 11.4664 19.4584 10.9475 19.6678C10.4279 19.8781 10.0092 19.9878 9.68911 19.9986C9.20231 20.0194 8.71709 19.8051 8.23276 19.3547C7.92364 19.0851 7.53698 18.6229 7.07379 17.9681C6.57681 17.2688 6.16823 16.458 5.84815 15.5336C5.50534 14.5351 5.3335 13.5682 5.3335 12.6321C5.3335 11.5599 5.56519 10.6351 6.02928 9.86007C6.39401 9.23757 6.87922 8.74653 7.48651 8.38604C8.0938 8.02556 8.74998 7.84186 9.45662 7.83011C9.84328 7.83011 10.3503 7.94971 10.9804 8.18477C11.6088 8.42061 12.0122 8.54021 12.1891 8.54021C12.3213 8.54021 12.7695 8.40036 13.5293 8.12156C14.2478 7.863 14.8542 7.75594 15.351 7.79811C16.6971 7.90675 17.7084 8.4374 18.381 9.39342C17.1771 10.1229 16.5815 11.1446 16.5934 12.4553C16.6042 13.4762 16.9746 14.3257 17.7025 15.0003C18.0323 15.3133 18.4007 15.5553 18.8106 15.7272C18.7217 15.9849 18.6279 16.2318 18.5281 16.4689ZM15.4408 4.32009C15.4408 5.12027 15.1485 5.8674 14.5658 6.55894C13.8626 7.38104 13.0121 7.85608 12.0897 7.78112C12.078 7.68513 12.0712 7.58409 12.0712 7.47792C12.0712 6.70975 12.4056 5.88765 12.9994 5.21547C13.2959 4.87514 13.673 4.59215 14.1303 4.36641C14.5865 4.14404 15.0181 4.02106 15.424 4C15.4359 4.10697 15.4408 4.21395 15.4408 4.32008V4.32009Z" fill="#040415"/>
</g>
<defs>
<clipPath id="clip0_487_6119">
<rect width="16" height="16" fill="white" transform="translate(4 4)"/>
</clipPath>
</defs>
</svg>
