<svg width="131" height="114" viewBox="0 0 131 114" fill="none" xmlns="http://www.w3.org/2000/svg">
<g filter="url(#filter0_d_510_6035)">
<path d="M10.5 26C10.5 17.1634 17.6634 10 26.5 10H104.5C113.337 10 120.5 17.1634 120.5 26V88C120.5 96.8366 113.337 104 104.5 104H26.5C17.6634 104 10.5 96.8366 10.5 88V26Z" fill="#F1F1F1" shape-rendering="crispEdges"/>
<path d="M47.3288 89.174C46.3042 89.174 45.4245 88.9565 44.6898 88.5215C43.9552 88.0768 43.3897 87.463 42.9933 86.68C42.597 85.8873 42.3988 84.9738 42.3988 83.9395C42.3988 82.9052 42.597 81.9917 42.9933 81.199C43.3897 80.4063 43.9552 79.7877 44.6898 79.343C45.4245 78.8983 46.3042 78.676 47.3288 78.676C48.5468 78.676 49.5425 78.9805 50.3158 79.5895C51.0988 80.1888 51.587 81.0347 51.7803 82.127H49.7358C49.6102 81.576 49.3395 81.1458 48.9238 80.8365C48.5178 80.5175 47.9765 80.358 47.2998 80.358C46.3622 80.358 45.6275 80.677 45.0958 81.315C44.5642 81.953 44.2983 82.8278 44.2983 83.9395C44.2983 85.0512 44.5642 85.926 45.0958 86.564C45.6275 87.1923 46.3622 87.5065 47.2998 87.5065C47.9765 87.5065 48.5178 87.3615 48.9238 87.0715C49.3395 86.7718 49.6102 86.361 49.7358 85.839H51.7803C51.587 86.883 51.0988 87.6998 50.3158 88.2895C49.5425 88.8792 48.5468 89.174 47.3288 89.174ZM55.8593 89.174C55.2406 89.174 54.7331 89.0773 54.3368 88.884C53.9404 88.681 53.6456 88.4152 53.4523 88.0865C53.2589 87.7578 53.1623 87.3953 53.1623 86.999C53.1623 86.332 53.4233 85.7907 53.9453 85.375C54.4673 84.9593 55.2503 84.7515 56.2943 84.7515H58.1213V84.5775C58.1213 84.0845 57.9811 83.722 57.7008 83.49C57.4204 83.258 57.0724 83.142 56.6568 83.142C56.2798 83.142 55.9511 83.2338 55.6708 83.4175C55.3904 83.5915 55.2164 83.8525 55.1488 84.2005H53.3363C53.3846 83.6785 53.5586 83.2242 53.8583 82.8375C54.1676 82.4508 54.5639 82.156 55.0473 81.953C55.5306 81.7403 56.0719 81.634 56.6713 81.634C57.6959 81.634 58.5031 81.8902 59.0928 82.4025C59.6824 82.9148 59.9773 83.6398 59.9773 84.5775V89H58.3968L58.2228 87.84C58.0101 88.2267 57.7104 88.5457 57.3238 88.797C56.9468 89.0483 56.4586 89.174 55.8593 89.174ZM56.2798 87.724C56.8114 87.724 57.2223 87.55 57.5123 87.202C57.8119 86.854 58.0004 86.4238 58.0778 85.9115H56.4973C56.0043 85.9115 55.6514 86.0033 55.4388 86.187C55.2261 86.361 55.1198 86.5785 55.1198 86.8395C55.1198 87.1198 55.2261 87.3373 55.4388 87.492C55.6514 87.6467 55.9318 87.724 56.2798 87.724ZM61.7484 89V78.56H63.6044V89H61.7484ZM65.5008 89V78.56H67.3568V89H65.5008ZM76.6669 89.174C75.9225 89.174 75.2507 89.029 74.6514 88.739C74.052 88.4393 73.5735 87.9898 73.2159 87.3905C72.8679 86.7912 72.6939 86.0323 72.6939 85.114V78.85H74.5499V85.1285C74.5499 85.9212 74.7384 86.5108 75.1154 86.8975C75.502 87.2842 76.0337 87.4775 76.7104 87.4775C77.3774 87.4775 77.9042 87.2842 78.2909 86.8975C78.6775 86.5108 78.8709 85.9212 78.8709 85.1285V78.85H80.7269V85.114C80.7269 86.0323 80.5432 86.7912 80.1759 87.3905C79.8085 87.9898 79.3155 88.4393 78.6969 88.739C78.0879 89.029 77.4112 89.174 76.6669 89.174ZM85.5505 89.174C84.9125 89.174 84.3518 89.0725 83.8685 88.8695C83.3852 88.6568 82.9985 88.3668 82.7085 87.9995C82.4185 87.6322 82.2445 87.2068 82.1865 86.7235H84.057C84.115 87.0038 84.2697 87.2455 84.521 87.4485C84.782 87.6418 85.1155 87.7385 85.5215 87.7385C85.9275 87.7385 86.2223 87.6563 86.406 87.492C86.5993 87.3277 86.696 87.1392 86.696 86.9265C86.696 86.6172 86.5607 86.4093 86.29 86.303C86.0193 86.187 85.6423 86.0758 85.159 85.9695C84.8497 85.9018 84.5355 85.8197 84.2165 85.723C83.8975 85.6263 83.6027 85.5055 83.332 85.3605C83.071 85.2058 82.8583 85.0125 82.694 84.7805C82.5297 84.5388 82.4475 84.244 82.4475 83.896C82.4475 83.258 82.6988 82.7215 83.2015 82.2865C83.7138 81.8515 84.4292 81.634 85.3475 81.634C86.1982 81.634 86.8748 81.8322 87.3775 82.2285C87.8898 82.6248 88.1943 83.171 88.291 83.867H86.5365C86.4302 83.3353 86.029 83.0695 85.333 83.0695C84.985 83.0695 84.7143 83.1372 84.521 83.2725C84.3373 83.4078 84.2455 83.577 84.2455 83.78C84.2455 83.9927 84.3857 84.1618 84.666 84.2875C84.9463 84.4132 85.3185 84.5292 85.7825 84.6355C86.2852 84.7515 86.7443 84.882 87.16 85.027C87.5853 85.1623 87.9237 85.3702 88.175 85.6505C88.4263 85.9212 88.552 86.3127 88.552 86.825C88.5617 87.2697 88.4457 87.6708 88.204 88.0285C87.9623 88.3862 87.6143 88.6665 87.16 88.8695C86.7057 89.0725 86.1692 89.174 85.5505 89.174Z" fill="#34D186"/>
<circle opacity="0.2" cx="65.5" cy="46" r="22" fill="#34D186"/>
<path d="M74.508 50.753V53.2673C74.5089 53.5007 74.4611 53.7317 74.3676 53.9456C74.2741 54.1595 74.137 54.3514 73.965 54.5092C73.793 54.667 73.5899 54.7872 73.3688 54.8619C73.1477 54.9367 72.9134 54.9645 72.6809 54.9435C70.102 54.6632 67.6247 53.782 65.4482 52.3705C63.4232 51.0838 61.7064 49.3669 60.4196 47.342C59.0032 45.1555 58.1217 42.6662 57.8466 40.0757C57.8257 39.8439 57.8532 39.6103 57.9275 39.3898C58.0018 39.1693 58.1212 38.9666 58.2781 38.7947C58.435 38.6229 58.6259 38.4856 58.8388 38.3915C59.0516 38.2975 59.2818 38.2488 59.5145 38.2486H62.0287C62.4355 38.2446 62.8298 38.3886 63.1382 38.6539C63.4466 38.9191 63.648 39.2874 63.7049 39.6901C63.8111 40.4948 64.0079 41.2848 64.2916 42.0452C64.4044 42.3452 64.4288 42.6712 64.3619 42.9846C64.2951 43.298 64.1398 43.5857 63.9145 43.8136L62.8501 44.878C64.0431 46.9762 65.7804 48.7134 67.8786 49.9065L68.943 48.8421C69.1709 48.6168 69.4586 48.4615 69.772 48.3947C70.0854 48.3278 70.4114 48.3522 70.7114 48.465C71.4718 48.7487 72.2618 48.9455 73.0665 49.0517C73.4736 49.1091 73.8454 49.3142 74.1112 49.6279C74.377 49.9415 74.5182 50.342 74.508 50.753Z" fill="#34D186"/>
</g>
<defs>
<filter id="filter0_d_510_6035" x="0.5" y="0" width="130" height="114" filterUnits="userSpaceOnUse" color-interpolation-filters="sRGB">
<feFlood flood-opacity="0" result="BackgroundImageFix"/>
<feColorMatrix in="SourceAlpha" type="matrix" values="0 0 0 0 0 0 0 0 0 0 0 0 0 0 0 0 0 0 127 0" result="hardAlpha"/>
<feOffset/>
<feGaussianBlur stdDeviation="5"/>
<feComposite in2="hardAlpha" operator="out"/>
<feColorMatrix type="matrix" values="0 0 0 0 0 0 0 0 0 0 0 0 0 0 0 0 0 0 0.2 0"/>
<feBlend mode="normal" in2="BackgroundImageFix" result="effect1_dropShadow_510_6035"/>
<feBlend mode="normal" in="SourceGraphic" in2="effect1_dropShadow_510_6035" result="shape"/>
</filter>
</defs>
</svg>
