<svg width="20" height="19" viewBox="0 0 20 19" fill="none" xmlns="http://www.w3.org/2000/svg">
<g clip-path="url(#clip0_287_7797)">
<path d="M7.56933 17.4168C8.00656 17.4168 8.361 17.0624 8.361 16.6252C8.361 16.1879 8.00656 15.8335 7.56933 15.8335C7.13211 15.8335 6.77766 16.1879 6.77766 16.6252C6.77766 17.0624 7.13211 17.4168 7.56933 17.4168Z" stroke="#CCCCCC" stroke-linecap="round" stroke-linejoin="round"/>
<path d="M16.2777 17.4168C16.7149 17.4168 17.0693 17.0624 17.0693 16.6252C17.0693 16.1879 16.7149 15.8335 16.2777 15.8335C15.8404 15.8335 15.486 16.1879 15.486 16.6252C15.486 17.0624 15.8404 17.4168 16.2777 17.4168Z" stroke="#CCCCCC" stroke-linecap="round" stroke-linejoin="round"/>
<path d="M1.23601 0.791504H4.40267L6.52434 11.3919C6.59673 11.7564 6.79502 12.0838 7.08448 12.3168C7.37394 12.5498 7.73614 12.6736 8.10767 12.6665H15.8027C16.1742 12.6736 16.5364 12.5498 16.8259 12.3168C17.1153 12.0838 17.3136 11.7564 17.386 11.3919L18.6527 4.74984H5.19434" stroke="#CCCCCC" stroke-linecap="round" stroke-linejoin="round"/>
</g>
<defs>
<clipPath id="clip0_287_7797">
<rect width="19" height="19" fill="white" transform="translate(0.444336)"/>
</clipPath>
</defs>
</svg>
