<svg width="131" height="114" viewBox="0 0 131 114" fill="none" xmlns="http://www.w3.org/2000/svg">
<g filter="url(#filter0_d_510_6029)">
<path d="M10.5 26C10.5 17.1634 17.6634 10 26.5 10H104.5C113.337 10 120.5 17.1634 120.5 26V88C120.5 96.8366 113.337 104 104.5 104H26.5C17.6634 104 10.5 96.8366 10.5 88V26Z" fill="#F1F1F1" shape-rendering="crispEdges"/>
<path d="M54.1399 88.174C53.1152 88.174 52.2355 87.9565 51.5009 87.5215C50.7662 87.0768 50.2007 86.463 49.8044 85.68C49.408 84.8873 49.2099 83.9738 49.2099 82.9395C49.2099 81.9052 49.408 80.9917 49.8044 80.199C50.2007 79.4063 50.7662 78.7877 51.5009 78.343C52.2355 77.8983 53.1152 77.676 54.1399 77.676C55.3579 77.676 56.3535 77.9805 57.1269 78.5895C57.9099 79.1888 58.398 80.0347 58.5914 81.127H56.5469C56.4212 80.576 56.1505 80.1458 55.7349 79.8365C55.3289 79.5175 54.7875 79.358 54.1109 79.358C53.1732 79.358 52.4385 79.677 51.9069 80.315C51.3752 80.953 51.1094 81.8278 51.1094 82.9395C51.1094 84.0512 51.3752 84.926 51.9069 85.564C52.4385 86.1923 53.1732 86.5065 54.1109 86.5065C54.7875 86.5065 55.3289 86.3615 55.7349 86.0715C56.1505 85.7718 56.4212 85.361 56.5469 84.839H58.5914C58.398 85.883 57.9099 86.6998 57.1269 87.2895C56.3535 87.8792 55.3579 88.174 54.1399 88.174ZM60.1908 88V77.56H62.0468V81.91C62.2885 81.5137 62.6123 81.2043 63.0183 80.982C63.434 80.75 63.9076 80.634 64.4393 80.634C65.3286 80.634 66.015 80.9143 66.4983 81.475C66.9913 82.0357 67.2378 82.8573 67.2378 83.94V88H65.3963V84.114C65.3963 83.4953 65.2706 83.0217 65.0193 82.693C64.7776 82.3643 64.391 82.2 63.8593 82.2C63.3373 82.2 62.9023 82.3837 62.5543 82.751C62.216 83.1183 62.0468 83.6307 62.0468 84.288V88H60.1908ZM71.4921 88.174C70.8734 88.174 70.3659 88.0773 69.9696 87.884C69.5732 87.681 69.2784 87.4152 69.0851 87.0865C68.8917 86.7578 68.7951 86.3953 68.7951 85.999C68.7951 85.332 69.0561 84.7907 69.5781 84.375C70.1001 83.9593 70.8831 83.7515 71.9271 83.7515H73.7541V83.5775C73.7541 83.0845 73.6139 82.722 73.3336 82.49C73.0532 82.258 72.7052 82.142 72.2896 82.142C71.9126 82.142 71.5839 82.2338 71.3036 82.4175C71.0232 82.5915 70.8492 82.8525 70.7816 83.2005H68.9691C69.0174 82.6785 69.1914 82.2242 69.4911 81.8375C69.8004 81.4508 70.1967 81.156 70.6801 80.953C71.1634 80.7403 71.7047 80.634 72.3041 80.634C73.3287 80.634 74.1359 80.8902 74.7256 81.4025C75.3152 81.9148 75.6101 82.6398 75.6101 83.5775V88H74.0296L73.8556 86.84C73.6429 87.2267 73.3432 87.5457 72.9566 87.797C72.5796 88.0483 72.0914 88.174 71.4921 88.174ZM71.9126 86.724C72.4442 86.724 72.8551 86.55 73.1451 86.202C73.4447 85.854 73.6332 85.4238 73.7106 84.9115H72.1301C71.6371 84.9115 71.2842 85.0033 71.0716 85.187C70.8589 85.361 70.7526 85.5785 70.7526 85.8395C70.7526 86.1198 70.8589 86.3373 71.0716 86.492C71.2842 86.6467 71.5646 86.724 71.9126 86.724ZM80.4866 88C79.7326 88 79.1284 87.8163 78.6741 87.449C78.2198 87.0817 77.9926 86.4292 77.9926 85.4915V82.3595H76.7601V80.808H77.9926L78.2101 78.8795H79.8486V80.808H81.7916V82.3595H79.8486V85.506C79.8486 85.854 79.9211 86.0957 80.0661 86.231C80.2208 86.3567 80.4818 86.4195 80.8491 86.4195H81.7481V88H80.4866Z" fill="#34D186"/>
<circle opacity="0.2" cx="65.5" cy="46" r="22" fill="#34D186"/>
<path d="M73.3569 45.3543C73.3599 46.5065 73.0907 47.6432 72.5711 48.6717C71.9552 49.9042 71.0082 50.9408 69.8364 51.6655C68.6645 52.3902 67.3141 52.7744 65.9362 52.7749C64.784 52.7779 63.6473 52.5087 62.6188 51.9892L57.6426 53.6479L59.3013 48.6717C58.7818 47.6432 58.5126 46.5065 58.5156 45.3543C58.5161 43.9764 58.9003 42.6259 59.625 41.4541C60.3496 40.2822 61.3863 39.3353 62.6188 38.7193C63.6473 38.1998 64.784 37.9306 65.9362 37.9336H66.3727C68.1924 38.034 69.9111 38.8021 71.1998 40.0907C72.4884 41.3794 73.2565 43.0981 73.3569 44.9177V45.3543Z" fill="#34D186"/>
</g>
<defs>
<filter id="filter0_d_510_6029" x="0.5" y="0" width="130" height="114" filterUnits="userSpaceOnUse" color-interpolation-filters="sRGB">
<feFlood flood-opacity="0" result="BackgroundImageFix"/>
<feColorMatrix in="SourceAlpha" type="matrix" values="0 0 0 0 0 0 0 0 0 0 0 0 0 0 0 0 0 0 127 0" result="hardAlpha"/>
<feOffset/>
<feGaussianBlur stdDeviation="5"/>
<feComposite in2="hardAlpha" operator="out"/>
<feColorMatrix type="matrix" values="0 0 0 0 0 0 0 0 0 0 0 0 0 0 0 0 0 0 0.2 0"/>
<feBlend mode="normal" in2="BackgroundImageFix" result="effect1_dropShadow_510_6029"/>
<feBlend mode="normal" in="SourceGraphic" in2="effect1_dropShadow_510_6029" result="shape"/>
</filter>
</defs>
</svg>
