<svg width="44" height="44" viewBox="0 0 44 44" fill="none" xmlns="http://www.w3.org/2000/svg">
<circle cx="22" cy="22" r="22" fill="#EBF2EF"/>
<path d="M33.7 13.25H10.3C9.58216 13.25 9 13.8098 9 14.5V29.5C9 30.1902 9.58216 30.75 10.3 30.75H33.7C34.4178 30.75 35 30.1902 35 29.5V14.5C35 13.8098 34.4178 13.25 33.7 13.25ZM16.15 24.8078V25.4375C16.15 25.6102 16.0046 25.75 15.825 25.75H15.175C14.9954 25.75 14.85 25.6102 14.85 25.4375V24.8012C14.3913 24.7785 13.9453 24.6246 13.5756 24.3578C13.4172 24.2434 13.409 24.0152 13.5524 23.8836L14.0298 23.4457C14.1423 23.3426 14.3097 23.3379 14.4413 23.4172C14.5985 23.5117 14.7769 23.5625 14.9621 23.5625H16.1041C16.3682 23.5625 16.5835 23.3313 16.5835 23.0473C16.5835 22.8148 16.4368 22.6102 16.2272 22.55L14.3991 22.0227C13.6438 21.8047 13.1161 21.1078 13.1161 20.3277C13.1161 19.3699 13.89 18.5918 14.8496 18.5672V17.9375C14.8496 17.7648 14.995 17.625 15.1746 17.625H15.8246C16.0042 17.625 16.1496 17.7648 16.1496 17.9375V18.5738C16.6083 18.5965 17.0543 18.75 17.424 19.0172C17.5824 19.1316 17.5906 19.3598 17.4472 19.4914L16.9698 19.9293C16.8573 20.0324 16.6899 20.0371 16.5583 19.9578C16.4011 19.8629 16.2227 19.8125 16.0375 19.8125H14.8955C14.6314 19.8125 14.4161 20.0438 14.4161 20.3277C14.4161 20.5602 14.5628 20.7648 14.7724 20.825L16.6005 21.3523C17.3557 21.5703 17.8835 22.2672 17.8835 23.0473C17.8835 24.0055 17.1096 24.7832 16.15 24.8078ZM25.9 24.1875C25.9 24.3602 25.7546 24.5 25.575 24.5H21.025C20.8454 24.5 20.7 24.3602 20.7 24.1875V23.5625C20.7 23.3898 20.8454 23.25 21.025 23.25H25.575C25.7546 23.25 25.9 23.3898 25.9 23.5625V24.1875ZM32.4 24.1875C32.4 24.3602 32.2546 24.5 32.075 24.5H28.825C28.6454 24.5 28.5 24.3602 28.5 24.1875V23.5625C28.5 23.3898 28.6454 23.25 28.825 23.25H32.075C32.2546 23.25 32.4 23.3898 32.4 23.5625V24.1875ZM32.4 20.4375C32.4 20.6102 32.2546 20.75 32.075 20.75H21.025C20.8454 20.75 20.7 20.6102 20.7 20.4375V19.8125C20.7 19.6398 20.8454 19.5 21.025 19.5H32.075C32.2546 19.5 32.4 19.6398 32.4 19.8125V20.4375Z" fill="#34D186"/>
</svg>
