<svg width="24" height="24" viewBox="0 0 24 24" fill="none" xmlns="http://www.w3.org/2000/svg">
<path d="M21.5334 4.19304L21.5022 7.5874L21.4606 12.1247L21.2856 12.5481L10.4222 23.4115L9.99411 23.8396L9.56598 23.4115L0.574609 14.4201L0.146484 13.9919L0.574609 13.5638L11.438 2.70046L11.8614 2.52544L16.3987 2.48384L19.8492 2.45215L19.9225 2.52799L16.9359 5.51462C16.7661 5.47187 16.5916 5.45026 16.4165 5.45026C15.8742 5.45026 15.3318 5.6572 14.918 6.07102L14.918 6.07104C14.5042 6.48488 14.2972 7.02727 14.2972 7.56954C14.2972 8.11182 14.5041 8.65416 14.918 9.06804H14.918L14.918 9.06807C15.3318 9.4819 15.8742 9.68885 16.4165 9.68885C16.9588 9.68885 17.5012 9.4819 17.915 9.06807L17.915 9.06806C18.3289 8.65423 18.5358 8.1118 18.5358 7.56954C18.5358 7.41029 18.5179 7.25102 18.4822 7.09498L21.46 4.1172L21.5334 4.19302L21.5334 4.19304ZM8.69705 19L9.55914 18.1379C9.83081 17.8646 9.96045 17.5879 9.94973 17.3064C9.93814 17.0256 9.79284 16.7465 9.51456 16.4682L7.76066 14.7143C7.48237 14.436 7.20327 14.2907 6.92252 14.2791C6.64092 14.2684 6.36431 14.398 6.09097 14.6697L5.22891 15.5318L8.69703 18.9999L8.69705 19ZM6.57653 15.1751C6.63352 15.1165 6.6938 15.0776 6.7582 15.0578C6.82178 15.0388 6.88866 15.0429 6.9605 15.0702C7.03152 15.0983 7.10831 15.152 7.19089 15.2345L8.99433 17.038C9.07691 17.1206 9.13058 17.1973 9.15867 17.2684C9.18591 17.3402 9.19005 17.4071 9.17105 17.4707C9.15123 17.5351 9.11242 17.5954 9.05378 17.6523L8.74661 17.9595L6.26936 15.4823L6.57655 15.1751H6.57653ZM8.2908 13.4608L9.23216 12.5195L8.73669 12.024L7.25036 13.5104L10.7185 16.9785L12.2049 15.4922L11.7094 14.9967L10.768 15.9381L9.75237 14.9224L10.5005 14.1743L10.005 13.6788L9.25692 14.4269L8.2908 13.4608ZM10.2825 10.4782L9.48484 11.2759L12.3981 15.2989L12.8985 14.7985L12.3634 14.0752L13.0323 13.4063L13.7556 13.9414L14.3056 13.3914L10.2825 10.4782ZM10.4708 11.5186L12.4873 13.0099L11.9621 13.5351L10.4708 11.5186V11.5186ZM14.5583 13.1387L16 11.697L15.5046 11.2016L14.6078 12.0983L11.6351 9.1256L11.0901 9.6706L14.5583 13.1388V13.1387Z" fill="#34D186"/>
<path d="M16.4695 6.66269C16.4518 6.66165 16.434 6.66113 16.4163 6.66113C16.1838 6.66113 15.9513 6.7498 15.774 6.92709H15.774C15.5967 7.10441 15.5081 7.33688 15.5081 7.56938C15.5081 7.80188 15.5967 8.03431 15.774 8.21161L15.774 8.21166C15.9513 8.38897 16.1838 8.47763 16.4163 8.47763C16.6488 8.47763 16.8813 8.38895 17.0586 8.21167L17.0586 8.21166C17.2359 8.03436 17.3245 7.80188 17.3245 7.56938V7.56859L17.3253 7.56938L23.4998 1.39492L22.6185 0.513672L16.4695 6.6627L16.4695 6.66269Z" fill="#34D186"/>
</svg>
