<svg width="25" height="24" viewBox="0 0 25 24" fill="none" xmlns="http://www.w3.org/2000/svg">
<path fill-rule="evenodd" clip-rule="evenodd" d="M12.6214 22C18.2923 22 22.8892 17.523 22.8892 12C22.8892 6.477 18.2923 2 12.6214 2C6.95044 2 2.35352 6.477 2.35352 12C2.35352 17.523 6.95044 22 12.6214 22ZM13.6482 7C13.6482 6.73478 13.54 6.48043 13.3474 6.29289C13.1549 6.10536 12.8937 6 12.6214 6C12.3491 6 12.0879 6.10536 11.8953 6.29289C11.7028 6.48043 11.5946 6.73478 11.5946 7V11.586C11.5947 12.1164 11.8111 12.625 12.1963 13L14.9758 15.707C15.1694 15.8892 15.4288 15.99 15.698 15.9877C15.9673 15.9854 16.2248 15.8802 16.4152 15.6948C16.6055 15.5094 16.7135 15.2586 16.7159 14.9964C16.7182 14.7342 16.6147 14.4816 16.4277 14.293L13.6482 11.586V7Z" fill="#34D186"/>
</svg>
