<svg width="131" height="114" viewBox="0 0 131 114" fill="none" xmlns="http://www.w3.org/2000/svg">
<g filter="url(#filter0_d_510_6041)">
<path d="M10.5 26C10.5 17.1634 17.6634 10 26.5 10H104.5C113.337 10 120.5 17.1634 120.5 26V88C120.5 96.8366 113.337 104 104.5 104H26.5C17.6634 104 10.5 96.8366 10.5 88V26Z" fill="#F1F1F1" shape-rendering="crispEdges"/>
<path d="M37.04 88V77.85H43.6665V79.3435H38.896V82.1275H43.2315V83.5775H38.896V86.5065H43.6665V88H37.04ZM45.3793 88V80.808H47.0178L47.1773 81.7795C47.4093 81.4315 47.7138 81.156 48.0908 80.953C48.4774 80.7403 48.9221 80.634 49.4248 80.634C50.5364 80.634 51.3243 81.0642 51.7883 81.9245C52.0493 81.5282 52.3973 81.214 52.8323 80.982C53.2769 80.75 53.7603 80.634 54.2823 80.634C55.2199 80.634 55.9401 80.9143 56.4428 81.475C56.9454 82.0357 57.1968 82.8573 57.1968 83.94V88H55.3408V84.114C55.3408 83.4953 55.2199 83.0217 54.9783 82.693C54.7463 82.3643 54.3838 82.2 53.8908 82.2C53.3881 82.2 52.9821 82.3837 52.6728 82.751C52.3731 83.1183 52.2233 83.6307 52.2233 84.288V88H50.3673V84.114C50.3673 83.4953 50.2464 83.0217 50.0048 82.693C49.7631 82.3643 49.3909 82.2 48.8883 82.2C48.3953 82.2 47.9941 82.3837 47.6848 82.751C47.3851 83.1183 47.2353 83.6307 47.2353 84.288V88H45.3793ZM61.4384 88.174C60.8197 88.174 60.3122 88.0773 59.9159 87.884C59.5195 87.681 59.2247 87.4152 59.0314 87.0865C58.838 86.7578 58.7414 86.3953 58.7414 85.999C58.7414 85.332 59.0024 84.7907 59.5244 84.375C60.0464 83.9593 60.8294 83.7515 61.8734 83.7515H63.7004V83.5775C63.7004 83.0845 63.5602 82.722 63.2799 82.49C62.9995 82.258 62.6515 82.142 62.2359 82.142C61.8589 82.142 61.5302 82.2338 61.2499 82.4175C60.9695 82.5915 60.7955 82.8525 60.7279 83.2005H58.9154C58.9637 82.6785 59.1377 82.2242 59.4374 81.8375C59.7467 81.4508 60.143 81.156 60.6264 80.953C61.1097 80.7403 61.651 80.634 62.2504 80.634C63.275 80.634 64.0822 80.8902 64.6719 81.4025C65.2615 81.9148 65.5564 82.6398 65.5564 83.5775V88H63.9759L63.8019 86.84C63.5892 87.2267 63.2895 87.5457 62.9029 87.797C62.5259 88.0483 62.0377 88.174 61.4384 88.174ZM61.8589 86.724C62.3905 86.724 62.8014 86.55 63.0914 86.202C63.391 85.854 63.5795 85.4238 63.6569 84.9115H62.0764C61.5834 84.9115 61.2305 85.0033 61.0179 85.187C60.8052 85.361 60.6989 85.5785 60.6989 85.8395C60.6989 86.1198 60.8052 86.3373 61.0179 86.492C61.2305 86.6467 61.5109 86.724 61.8589 86.724ZM68.328 79.6915C67.9897 79.6915 67.7093 79.59 67.487 79.387C67.2743 79.184 67.168 78.9278 67.168 78.6185C67.168 78.3092 67.2743 78.0578 67.487 77.8645C67.7093 77.6615 67.9897 77.56 68.328 77.56C68.6663 77.56 68.9418 77.6615 69.1545 77.8645C69.3768 78.0578 69.488 78.3092 69.488 78.6185C69.488 78.9278 69.3768 79.184 69.1545 79.387C68.9418 79.59 68.6663 79.6915 68.328 79.6915ZM67.4 88V80.808H69.256V88H67.4ZM71.1932 88V77.56H73.0492V88H71.1932ZM82.3593 88.174C81.6149 88.174 80.9431 88.029 80.3438 87.739C79.7444 87.4393 79.2659 86.9898 78.9083 86.3905C78.5603 85.7912 78.3863 85.0323 78.3863 84.114V77.85H80.2423V84.1285C80.2423 84.9212 80.4308 85.5108 80.8078 85.8975C81.1944 86.2842 81.7261 86.4775 82.4028 86.4775C83.0698 86.4775 83.5966 86.2842 83.9833 85.8975C84.3699 85.5108 84.5633 84.9212 84.5633 84.1285V77.85H86.4193V84.114C86.4193 85.0323 86.2356 85.7912 85.8683 86.3905C85.5009 86.9898 85.0079 87.4393 84.3893 87.739C83.7803 88.029 83.1036 88.174 82.3593 88.174ZM91.2429 88.174C90.6049 88.174 90.0442 88.0725 89.5609 87.8695C89.0775 87.6568 88.6909 87.3668 88.4009 86.9995C88.1109 86.6322 87.9369 86.2068 87.8789 85.7235H89.7494C89.8074 86.0038 89.962 86.2455 90.2134 86.4485C90.4744 86.6418 90.8079 86.7385 91.2139 86.7385C91.6199 86.7385 91.9147 86.6563 92.0984 86.492C92.2917 86.3277 92.3884 86.1392 92.3884 85.9265C92.3884 85.6172 92.253 85.4093 91.9824 85.303C91.7117 85.187 91.3347 85.0758 90.8514 84.9695C90.542 84.9018 90.2279 84.8197 89.9089 84.723C89.5899 84.6263 89.295 84.5055 89.0244 84.3605C88.7634 84.2058 88.5507 84.0125 88.3864 83.7805C88.222 83.5388 88.1399 83.244 88.1399 82.896C88.1399 82.258 88.3912 81.7215 88.8939 81.2865C89.4062 80.8515 90.1215 80.634 91.0399 80.634C91.8905 80.634 92.5672 80.8322 93.0699 81.2285C93.5822 81.6248 93.8867 82.171 93.9834 82.867H92.2289C92.1225 82.3353 91.7214 82.0695 91.0254 82.0695C90.6774 82.0695 90.4067 82.1372 90.2134 82.2725C90.0297 82.4078 89.9379 82.577 89.9379 82.78C89.9379 82.9927 90.078 83.1618 90.3584 83.2875C90.6387 83.4132 91.0109 83.5292 91.4749 83.6355C91.9775 83.7515 92.4367 83.882 92.8524 84.027C93.2777 84.1623 93.616 84.3702 93.8674 84.6505C94.1187 84.9212 94.2444 85.3127 94.2444 85.825C94.254 86.2697 94.138 86.6708 93.8964 87.0285C93.6547 87.3862 93.3067 87.6665 92.8524 87.8695C92.398 88.0725 91.8615 88.174 91.2429 88.174Z" fill="#34D186"/>
<circle opacity="0.2" cx="65.5" cy="46" r="22" fill="#34D186"/>
<g clip-path="url(#clip0_510_6041)">
<path d="M75.5184 41.0416V37.7678H71.2624L65.5005 33.3809L59.7386 37.7678H55.4827V41.0416L52.4053 43.3987V58.2618H78.5958V43.3987L75.5184 41.0416ZM65.5005 35.0178L69.1017 37.7678H61.8993L65.5005 35.0178ZM56.7267 38.8809H74.2743V46.6071L68.9053 50.732L65.5005 48.113L62.1612 50.6666L56.7267 46.6071V38.8809ZM53.7148 44.0535L55.4827 42.6785V45.7559L53.7148 44.4463V44.0535ZM53.7148 56.9523V46.0832L60.9827 51.6487L54.1077 56.9523H53.7148ZM56.3338 56.9523L65.5005 49.8809L74.6672 56.9523H56.3338ZM77.2862 56.9523H76.8934L70.0184 51.6487L77.2862 46.0832V56.9523ZM77.2862 44.4463L75.5184 45.7559V42.8094L77.2862 44.1844V44.4463Z" fill="#34D186"/>
<path d="M69.8877 40.6489H61.1139V41.893H69.8877V40.6489ZM72.1139 43.137H58.8223V44.512H72.1139V43.137ZM72.1139 45.6251H58.8223V47.0001H72.1139V45.6251Z" fill="#34D186"/>
</g>
</g>
<defs>
<filter id="filter0_d_510_6041" x="0.5" y="0" width="130" height="114" filterUnits="userSpaceOnUse" color-interpolation-filters="sRGB">
<feFlood flood-opacity="0" result="BackgroundImageFix"/>
<feColorMatrix in="SourceAlpha" type="matrix" values="0 0 0 0 0 0 0 0 0 0 0 0 0 0 0 0 0 0 127 0" result="hardAlpha"/>
<feOffset/>
<feGaussianBlur stdDeviation="5"/>
<feComposite in2="hardAlpha" operator="out"/>
<feColorMatrix type="matrix" values="0 0 0 0 0 0 0 0 0 0 0 0 0 0 0 0 0 0 0.2 0"/>
<feBlend mode="normal" in2="BackgroundImageFix" result="effect1_dropShadow_510_6041"/>
<feBlend mode="normal" in="SourceGraphic" in2="effect1_dropShadow_510_6041" result="shape"/>
</filter>
<clipPath id="clip0_510_6041">
<rect width="26.1905" height="26.1905" fill="white" transform="translate(52.4053 33.3809)"/>
</clipPath>
</defs>
</svg>
