<svg width="48" height="48" viewBox="0 0 48 48" fill="none" xmlns="http://www.w3.org/2000/svg">
<path d="M16.06 30.4C15.9573 30.4 15.878 30.3673 15.822 30.302C15.766 30.246 15.738 30.1713 15.738 30.078V29.098C15.0567 29.042 14.4827 28.888 14.016 28.636C13.5493 28.3747 13.1947 28.062 12.952 27.698C12.7093 27.334 12.5787 26.9467 12.56 26.536C12.56 26.4613 12.588 26.396 12.644 26.34C12.7093 26.2747 12.784 26.242 12.868 26.242H13.582C13.694 26.242 13.778 26.27 13.834 26.326C13.89 26.382 13.9273 26.4473 13.946 26.522C14.002 26.746 14.1187 26.97 14.296 27.194C14.4733 27.4087 14.7253 27.5907 15.052 27.74C15.388 27.88 15.8173 27.95 16.34 27.95C17.1427 27.95 17.7307 27.81 18.104 27.53C18.4867 27.2407 18.678 26.858 18.678 26.382C18.678 26.0553 18.5753 25.794 18.37 25.598C18.174 25.3927 17.8707 25.2107 17.46 25.052C17.0493 24.8933 16.5173 24.7207 15.864 24.534C15.1827 24.338 14.618 24.1233 14.17 23.89C13.722 23.6567 13.386 23.3673 13.162 23.022C12.9473 22.6767 12.84 22.238 12.84 21.706C12.84 21.0247 13.092 20.4413 13.596 19.956C14.1 19.4613 14.814 19.172 15.738 19.088V18.122C15.738 18.0287 15.766 17.954 15.822 17.898C15.878 17.8327 15.9573 17.8 16.06 17.8H16.592C16.6853 17.8 16.76 17.8327 16.816 17.898C16.8813 17.954 16.914 18.0287 16.914 18.122V19.102C17.5393 19.1767 18.062 19.3493 18.482 19.62C18.902 19.8907 19.2193 20.2033 19.434 20.558C19.6487 20.9127 19.7607 21.258 19.77 21.594C19.77 21.6593 19.7467 21.7247 19.7 21.79C19.6533 21.846 19.5787 21.874 19.476 21.874H18.734C18.6687 21.874 18.5987 21.8553 18.524 21.818C18.4587 21.7807 18.4073 21.7107 18.37 21.608C18.314 21.2253 18.0993 20.9033 17.726 20.642C17.3527 20.3807 16.8673 20.25 16.27 20.25C15.6633 20.25 15.1687 20.3667 14.786 20.6C14.4127 20.8333 14.226 21.1973 14.226 21.692C14.226 22.0093 14.3147 22.2753 14.492 22.49C14.6693 22.6953 14.9493 22.8773 15.332 23.036C15.7147 23.1947 16.214 23.3627 16.83 23.54C17.5767 23.7453 18.188 23.9647 18.664 24.198C19.14 24.422 19.49 24.7067 19.714 25.052C19.9473 25.388 20.064 25.822 20.064 26.354C20.064 26.886 19.9333 27.348 19.672 27.74C19.42 28.132 19.056 28.4447 18.58 28.678C18.1133 28.9113 17.558 29.056 16.914 29.112V30.078C16.914 30.1713 16.8813 30.246 16.816 30.302C16.76 30.3673 16.6853 30.4 16.592 30.4H16.06ZM24.5183 29C24.425 29 24.3456 28.972 24.2803 28.916C24.2243 28.8507 24.1963 28.7713 24.1963 28.678V20.838L21.8723 22.63C21.7976 22.686 21.7183 22.7093 21.6343 22.7C21.5503 22.6907 21.4803 22.6487 21.4243 22.574L21.0603 22.112C21.0043 22.028 20.981 21.944 20.9903 21.86C21.009 21.776 21.0556 21.706 21.1303 21.65L24.1823 19.298C24.2476 19.2513 24.3083 19.2233 24.3643 19.214C24.4203 19.2047 24.481 19.2 24.5463 19.2H25.2603C25.3536 19.2 25.4283 19.2327 25.4843 19.298C25.5403 19.354 25.5683 19.4287 25.5683 19.522V28.678C25.5683 28.7713 25.5403 28.8507 25.4843 28.916C25.4283 28.972 25.3536 29 25.2603 29H24.5183ZM30.7306 29.14C29.9932 29.14 29.3679 29.014 28.8546 28.762C28.3506 28.5007 27.9632 28.1647 27.6926 27.754C27.4312 27.3433 27.2912 26.9093 27.2726 26.452C27.2632 26.368 27.2866 26.3027 27.3426 26.256C27.3986 26.2093 27.4686 26.186 27.5526 26.186H28.3086C28.3926 26.186 28.4672 26.2047 28.5326 26.242C28.5979 26.2793 28.6492 26.3587 28.6866 26.48C28.7799 26.8253 28.9292 27.11 29.1346 27.334C29.3492 27.5487 29.5919 27.7073 29.8626 27.81C30.1426 27.9033 30.4319 27.95 30.7306 27.95C31.1319 27.95 31.4959 27.8707 31.8226 27.712C32.1586 27.544 32.4246 27.3013 32.6206 26.984C32.8166 26.6573 32.9146 26.2653 32.9146 25.808C32.9146 25.388 32.8166 25.0287 32.6206 24.73C32.4339 24.422 32.1726 24.1887 31.8366 24.03C31.5099 23.862 31.1412 23.778 30.7306 23.778C30.4226 23.778 30.1706 23.8153 29.9746 23.89C29.7786 23.9647 29.6106 24.0533 29.4706 24.156C29.3399 24.2587 29.2186 24.3473 29.1066 24.422C29.0039 24.4967 28.8872 24.534 28.7566 24.534H28.0286C27.9446 24.534 27.8699 24.506 27.8046 24.45C27.7392 24.3847 27.7112 24.31 27.7206 24.226L28.1686 19.55C28.1779 19.438 28.2106 19.354 28.2666 19.298C28.3319 19.2327 28.4159 19.2 28.5186 19.2H33.4046C33.4979 19.2 33.5726 19.2327 33.6286 19.298C33.6939 19.354 33.7266 19.4287 33.7266 19.522V20.068C33.7266 20.1707 33.6939 20.25 33.6286 20.306C33.5726 20.362 33.4979 20.39 33.4046 20.39H29.3726L29.1066 23.148C29.2372 23.064 29.4472 22.966 29.7366 22.854C30.0259 22.7327 30.4226 22.672 30.9266 22.672C31.3839 22.672 31.8132 22.742 32.2146 22.882C32.6252 23.022 32.9892 23.2273 33.3066 23.498C33.6239 23.7687 33.8712 24.1 34.0486 24.492C34.2259 24.8747 34.3146 25.318 34.3146 25.822C34.3146 26.5313 34.1559 27.1333 33.8386 27.628C33.5306 28.1227 33.1059 28.5007 32.5646 28.762C32.0326 29.014 31.4212 29.14 30.7306 29.14Z" fill="#6F7883"/>
<circle cx="24" cy="24" r="23.5" stroke="#8392A5"/>
</svg>
