<svg width="67" height="57" viewBox="0 0 67 57" fill="none" xmlns="http://www.w3.org/2000/svg">
<g filter="url(#filter0_d_546_6426)">
<path d="M36.8666 34.6C36.6721 34.6 36.4856 34.5228 36.3481 34.3852C36.2106 34.2477 36.1333 34.0612 36.1333 33.8667V23.6C36.1333 23.4055 36.2106 23.219 36.3481 23.0815C36.4856 22.944 36.6721 22.8667 36.8666 22.8667H40.5333C41.7003 22.8667 42.8194 23.3303 43.6446 24.1554C44.4697 24.9806 44.9333 26.0997 44.9333 27.2667V30.2C44.9333 30.3945 44.856 30.5811 44.7185 30.7186C44.581 30.8561 44.3945 30.9334 44.2 30.9334C44.0055 30.9334 43.8189 30.8561 43.6814 30.7186C43.5439 30.5811 43.4666 30.3945 43.4666 30.2V27.2667C43.4666 26.4887 43.1576 25.7426 42.6075 25.1925C42.0574 24.6424 41.3113 24.3334 40.5333 24.3334H37.6V33.8667C37.6 34.0612 37.5227 34.2477 37.3852 34.3852C37.2477 34.5228 37.0611 34.6 36.8666 34.6Z" fill="black" fill-opacity="0.35"/>
<path d="M47.8667 34.6H44.2C43.0331 34.6 41.9139 34.1365 41.0888 33.3113C40.2636 32.4861 39.8 31.367 39.8 30.2V27.2667C39.8 27.0722 39.8773 26.8857 40.0148 26.7482C40.1524 26.6106 40.3389 26.5334 40.5334 26.5334C40.7279 26.5334 40.9144 26.6106 41.0519 26.7482C41.1895 26.8857 41.2667 27.0722 41.2667 27.2667V30.2C41.2667 30.978 41.5758 31.7241 42.1259 32.2742C42.676 32.8243 43.4221 33.1334 44.2 33.1334H47.1334V23.6C47.1334 23.4055 47.2106 23.219 47.3482 23.0815C47.4857 22.944 47.6722 22.8667 47.8667 22.8667C48.0612 22.8667 48.2477 22.944 48.3853 23.0815C48.5228 23.219 48.6 23.4055 48.6 23.6V33.8667C48.6 34.0612 48.5228 34.2477 48.3853 34.3852C48.2477 34.5228 48.0612 34.6 47.8667 34.6Z" fill="black" fill-opacity="0.35"/>
<path d="M20.8474 35V24.092L18.8134 24.542V23.498L21.3514 22.4H22.3774V35H20.8474ZM29.3211 35.216C28.4571 35.216 27.7071 35.06 27.0711 34.748C26.4351 34.436 25.9251 34.01 25.5411 33.47C25.1691 32.918 24.9411 32.294 24.8571 31.598H26.3331C26.4771 32.294 26.8131 32.858 27.3411 33.29C27.8691 33.71 28.5351 33.92 29.3391 33.92C29.9391 33.92 30.4551 33.782 30.8871 33.506C31.3191 33.218 31.6491 32.834 31.8771 32.354C32.1171 31.874 32.2371 31.34 32.2371 30.752C32.2371 29.816 31.9731 29.06 31.4451 28.484C30.9171 27.908 30.2331 27.62 29.3931 27.62C28.6971 27.62 28.1031 27.776 27.6111 28.088C27.1191 28.4 26.7591 28.808 26.5311 29.312H25.0911L26.1711 22.4H32.7771V23.714H27.3411L26.6031 27.548C26.8911 27.2 27.2871 26.912 27.7911 26.684C28.3071 26.456 28.8951 26.342 29.5551 26.342C30.3831 26.342 31.1031 26.534 31.7151 26.918C32.3391 27.302 32.8251 27.824 33.1731 28.484C33.5211 29.144 33.6951 29.894 33.6951 30.734C33.6951 31.538 33.5211 32.282 33.1731 32.966C32.8371 33.65 32.3391 34.196 31.6791 34.604C31.0311 35.012 30.2451 35.216 29.3211 35.216Z" fill="black" fill-opacity="0.35"/>
<rect x="5.5" y="5.5" width="56" height="46" rx="7.5" stroke="black" stroke-opacity="0.35" shape-rendering="crispEdges"/>
</g>
<defs>
<filter id="filter0_d_546_6426" x="0" y="0" width="67" height="57" filterUnits="userSpaceOnUse" color-interpolation-filters="sRGB">
<feFlood flood-opacity="0" result="BackgroundImageFix"/>
<feColorMatrix in="SourceAlpha" type="matrix" values="0 0 0 0 0 0 0 0 0 0 0 0 0 0 0 0 0 0 127 0" result="hardAlpha"/>
<feOffset/>
<feGaussianBlur stdDeviation="2.5"/>
<feComposite in2="hardAlpha" operator="out"/>
<feColorMatrix type="matrix" values="0 0 0 0 0 0 0 0 0 0 0 0 0 0 0 0 0 0 0.15 0"/>
<feBlend mode="normal" in2="BackgroundImageFix" result="effect1_dropShadow_546_6426"/>
<feBlend mode="normal" in="SourceGraphic" in2="effect1_dropShadow_546_6426" result="shape"/>
</filter>
</defs>
</svg>
