<svg width="57" height="47" viewBox="0 0 57 47" fill="none" xmlns="http://www.w3.org/2000/svg">
<path d="M22.1053 30.216C21.2413 30.216 20.4913 30.06 19.8553 29.748C19.2193 29.436 18.7093 29.01 18.3253 28.47C17.9533 27.918 17.7253 27.294 17.6413 26.598H19.1173C19.2613 27.294 19.5973 27.858 20.1253 28.29C20.6533 28.71 21.3193 28.92 22.1233 28.92C22.7233 28.92 23.2393 28.782 23.6713 28.506C24.1033 28.218 24.4333 27.834 24.6613 27.354C24.9013 26.874 25.0213 26.34 25.0213 25.752C25.0213 24.816 24.7573 24.06 24.2293 23.484C23.7013 22.908 23.0173 22.62 22.1773 22.62C21.4813 22.62 20.8873 22.776 20.3953 23.088C19.9033 23.4 19.5433 23.808 19.3153 24.312H17.8753L18.9553 17.4H25.5613V18.714H20.1253L19.3873 22.548C19.6753 22.2 20.0713 21.912 20.5753 21.684C21.0913 21.456 21.6793 21.342 22.3393 21.342C23.1673 21.342 23.8873 21.534 24.4993 21.918C25.1233 22.302 25.6093 22.824 25.9573 23.484C26.3053 24.144 26.4793 24.894 26.4793 25.734C26.4793 26.538 26.3053 27.282 25.9573 27.966C25.6213 28.65 25.1233 29.196 24.4633 29.604C23.8153 30.012 23.0293 30.216 22.1053 30.216Z" fill="black" fill-opacity="0.4"/>
<path d="M29.8666 29.6C29.6721 29.6 29.4856 29.5228 29.3481 29.3852C29.2106 29.2477 29.1333 29.0612 29.1333 28.8667V18.6C29.1333 18.4055 29.2106 18.219 29.3481 18.0815C29.4856 17.944 29.6721 17.8667 29.8666 17.8667H33.5333C34.7003 17.8667 35.8194 18.3303 36.6446 19.1554C37.4697 19.9806 37.9333 21.0997 37.9333 22.2667V25.2C37.9333 25.3945 37.856 25.5811 37.7185 25.7186C37.581 25.8561 37.3945 25.9334 37.2 25.9334C37.0055 25.9334 36.8189 25.8561 36.6814 25.7186C36.5439 25.5811 36.4666 25.3945 36.4666 25.2V22.2667C36.4666 21.4887 36.1576 20.7426 35.6075 20.1925C35.0574 19.6424 34.3113 19.3334 33.5333 19.3334H30.6V28.8667C30.6 29.0612 30.5227 29.2477 30.3852 29.3852C30.2477 29.5228 30.0611 29.6 29.8666 29.6Z" fill="black" fill-opacity="0.4"/>
<path d="M40.8667 29.6H37.2C36.0331 29.6 34.9139 29.1365 34.0888 28.3113C33.2636 27.4861 32.8 26.367 32.8 25.2V22.2667C32.8 22.0722 32.8773 21.8857 33.0148 21.7482C33.1524 21.6106 33.3389 21.5334 33.5334 21.5334C33.7279 21.5334 33.9144 21.6106 34.0519 21.7482C34.1895 21.8857 34.2667 22.0722 34.2667 22.2667V25.2C34.2667 25.978 34.5758 26.7241 35.1259 27.2742C35.676 27.8243 36.4221 28.1334 37.2 28.1334H40.1334V18.6C40.1334 18.4055 40.2106 18.219 40.3482 18.0815C40.4857 17.944 40.6722 17.8667 40.8667 17.8667C41.0612 17.8667 41.2477 17.944 41.3853 18.0815C41.5228 18.219 41.6 18.4055 41.6 18.6V28.8667C41.6 29.0612 41.5228 29.2477 41.3853 29.3852C41.2477 29.5228 41.0612 29.6 40.8667 29.6Z" fill="black" fill-opacity="0.4"/>
<rect x="0.5" y="0.5" width="56" height="46" rx="7.5" stroke="black" stroke-opacity="0.35"/>
</svg>
