<svg width="48" height="48" viewBox="0 0 48 48" fill="none" xmlns="http://www.w3.org/2000/svg">
<path d="M19.06 30.4C18.9573 30.4 18.878 30.3673 18.822 30.302C18.766 30.246 18.738 30.1713 18.738 30.078V29.098C18.0567 29.042 17.4827 28.888 17.016 28.636C16.5493 28.3747 16.1947 28.062 15.952 27.698C15.7093 27.334 15.5787 26.9467 15.56 26.536C15.56 26.4613 15.588 26.396 15.644 26.34C15.7093 26.2747 15.784 26.242 15.868 26.242H16.582C16.694 26.242 16.778 26.27 16.834 26.326C16.89 26.382 16.9273 26.4473 16.946 26.522C17.002 26.746 17.1187 26.97 17.296 27.194C17.4733 27.4087 17.7253 27.5907 18.052 27.74C18.388 27.88 18.8173 27.95 19.34 27.95C20.1427 27.95 20.7307 27.81 21.104 27.53C21.4867 27.2407 21.678 26.858 21.678 26.382C21.678 26.0553 21.5753 25.794 21.37 25.598C21.174 25.3927 20.8707 25.2107 20.46 25.052C20.0493 24.8933 19.5173 24.7207 18.864 24.534C18.1827 24.338 17.618 24.1233 17.17 23.89C16.722 23.6567 16.386 23.3673 16.162 23.022C15.9473 22.6767 15.84 22.238 15.84 21.706C15.84 21.0247 16.092 20.4413 16.596 19.956C17.1 19.4613 17.814 19.172 18.738 19.088V18.122C18.738 18.0287 18.766 17.954 18.822 17.898C18.878 17.8327 18.9573 17.8 19.06 17.8H19.592C19.6853 17.8 19.76 17.8327 19.816 17.898C19.8813 17.954 19.914 18.0287 19.914 18.122V19.102C20.5393 19.1767 21.062 19.3493 21.482 19.62C21.902 19.8907 22.2193 20.2033 22.434 20.558C22.6487 20.9127 22.7607 21.258 22.77 21.594C22.77 21.6593 22.7467 21.7247 22.7 21.79C22.6533 21.846 22.5787 21.874 22.476 21.874H21.734C21.6687 21.874 21.5987 21.8553 21.524 21.818C21.4587 21.7807 21.4073 21.7107 21.37 21.608C21.314 21.2253 21.0993 20.9033 20.726 20.642C20.3527 20.3807 19.8673 20.25 19.27 20.25C18.6633 20.25 18.1687 20.3667 17.786 20.6C17.4127 20.8333 17.226 21.1973 17.226 21.692C17.226 22.0093 17.3147 22.2753 17.492 22.49C17.6693 22.6953 17.9493 22.8773 18.332 23.036C18.7147 23.1947 19.214 23.3627 19.83 23.54C20.5767 23.7453 21.188 23.9647 21.664 24.198C22.14 24.422 22.49 24.7067 22.714 25.052C22.9473 25.388 23.064 25.822 23.064 26.354C23.064 26.886 22.9333 27.348 22.672 27.74C22.42 28.132 22.056 28.4447 21.58 28.678C21.1133 28.9113 20.558 29.056 19.914 29.112V30.078C19.914 30.1713 19.8813 30.246 19.816 30.302C19.76 30.3673 19.6853 30.4 19.592 30.4H19.06ZM27.7423 29.14C27.005 29.14 26.3796 29.014 25.8663 28.762C25.3623 28.5007 24.975 28.1647 24.7043 27.754C24.443 27.3433 24.303 26.9093 24.2843 26.452C24.275 26.368 24.2983 26.3027 24.3543 26.256C24.4103 26.2093 24.4803 26.186 24.5643 26.186H25.3203C25.4043 26.186 25.479 26.2047 25.5443 26.242C25.6096 26.2793 25.661 26.3587 25.6983 26.48C25.7916 26.8253 25.941 27.11 26.1463 27.334C26.361 27.5487 26.6036 27.7073 26.8743 27.81C27.1543 27.9033 27.4436 27.95 27.7423 27.95C28.1436 27.95 28.5076 27.8707 28.8343 27.712C29.1703 27.544 29.4363 27.3013 29.6323 26.984C29.8283 26.6573 29.9263 26.2653 29.9263 25.808C29.9263 25.388 29.8283 25.0287 29.6323 24.73C29.4456 24.422 29.1843 24.1887 28.8483 24.03C28.5216 23.862 28.153 23.778 27.7423 23.778C27.4343 23.778 27.1823 23.8153 26.9863 23.89C26.7903 23.9647 26.6223 24.0533 26.4823 24.156C26.3516 24.2587 26.2303 24.3473 26.1183 24.422C26.0156 24.4967 25.899 24.534 25.7683 24.534H25.0403C24.9563 24.534 24.8816 24.506 24.8163 24.45C24.751 24.3847 24.723 24.31 24.7323 24.226L25.1803 19.55C25.1896 19.438 25.2223 19.354 25.2783 19.298C25.3436 19.2327 25.4276 19.2 25.5303 19.2H30.4163C30.5096 19.2 30.5843 19.2327 30.6403 19.298C30.7056 19.354 30.7383 19.4287 30.7383 19.522V20.068C30.7383 20.1707 30.7056 20.25 30.6403 20.306C30.5843 20.362 30.5096 20.39 30.4163 20.39H26.3843L26.1183 23.148C26.249 23.064 26.459 22.966 26.7483 22.854C27.0376 22.7327 27.4343 22.672 27.9383 22.672C28.3956 22.672 28.825 22.742 29.2263 22.882C29.637 23.022 30.001 23.2273 30.3183 23.498C30.6356 23.7687 30.883 24.1 31.0603 24.492C31.2376 24.8747 31.3263 25.318 31.3263 25.822C31.3263 26.5313 31.1676 27.1333 30.8503 27.628C30.5423 28.1227 30.1176 28.5007 29.5763 28.762C29.0443 29.014 28.433 29.14 27.7423 29.14Z" fill="#6F7883"/>
<circle cx="24" cy="24" r="23.5" stroke="#6F7883"/>
</svg>
