<svg width="46" height="45" viewBox="0 0 46 45" fill="none" xmlns="http://www.w3.org/2000/svg">
<circle opacity="0.1" cx="23.4443" cy="22.5" r="22.5" fill="#34D186"/>
<path d="M32.6587 27.3599V29.9314C32.6596 30.1701 32.6107 30.4064 32.5151 30.6251C32.4195 30.8438 32.2792 31.0402 32.1033 31.2015C31.9274 31.3629 31.7197 31.4858 31.4936 31.5623C31.2674 31.6387 31.0278 31.6671 30.7901 31.6457C28.1525 31.3591 25.6189 30.4578 23.3929 29.0142C21.3219 27.6982 19.5661 25.9424 18.2501 23.8714C16.8015 21.6353 15.9 19.0894 15.6187 16.4399C15.5972 16.2029 15.6254 15.964 15.7014 15.7385C15.7773 15.5129 15.8994 15.3057 16.0599 15.1299C16.2203 14.9541 16.4156 14.8137 16.6333 14.7175C16.851 14.6214 17.0864 14.5716 17.3244 14.5714H19.8958C20.3118 14.5673 20.715 14.7146 21.0304 14.9858C21.3459 15.2571 21.5519 15.6338 21.6101 16.0457C21.7186 16.8686 21.9199 17.6766 22.2101 18.4542C22.3254 18.761 22.3504 19.0944 22.282 19.415C22.2136 19.7355 22.0548 20.0298 21.8244 20.2628L20.7358 21.3514C21.956 23.4973 23.7328 25.274 25.8787 26.4942L26.9672 25.4057C27.2003 25.1752 27.4945 25.0164 27.815 24.948C28.1356 24.8797 28.469 24.9046 28.7758 25.0199C29.5535 25.3101 30.3615 25.5114 31.1844 25.6199C31.6007 25.6787 31.981 25.8884 32.2528 26.2092C32.5246 26.53 32.6691 26.9396 32.6587 27.3599Z" stroke="#34D186" stroke-linecap="round" stroke-linejoin="round"/>
</svg>
