<svg width="46" height="45" viewBox="0 0 46 45" fill="none" xmlns="http://www.w3.org/2000/svg">
<circle opacity="0.1" cx="23.4443" cy="22.5" r="22.5" fill="#34D186"/>
<path opacity="0.4" d="M33.4816 26.2759C33.4816 28.9497 31.1869 31.1155 28.3287 31.1251H28.3185H18.1664C15.3185 31.1251 12.9931 28.9688 12.9931 26.2951V26.2855C12.9931 26.2855 12.9992 22.0439 13.0074 19.9107C13.0085 19.5101 13.5002 19.2858 13.8352 19.535C16.2692 21.3415 20.622 24.6352 20.6763 24.6784C21.4036 25.2237 22.3256 25.5313 23.2681 25.5313C24.2105 25.5313 25.1325 25.2237 25.8599 24.6678C25.9142 24.6343 30.1696 21.4392 32.6405 19.603C32.9766 19.3529 33.4703 19.5772 33.4713 19.9768C33.4816 22.0937 33.4816 26.2759 33.4816 26.2759" fill="#34D186"/>
<path d="M32.9449 16.4371C32.0578 14.8731 30.3121 13.8745 28.3903 13.8745H18.1665C16.2447 13.8745 14.4991 14.8731 13.6119 16.4371C13.4132 16.7869 13.5075 17.2229 13.8383 17.4702L21.4447 23.1617C21.9774 23.5642 22.6228 23.7645 23.2682 23.7645C23.2723 23.7645 23.2754 23.7645 23.2784 23.7645C23.2815 23.7645 23.2856 23.7645 23.2887 23.7645C23.9341 23.7645 24.5794 23.5642 25.1121 23.1617L32.7185 17.4702C33.0494 17.2229 33.1436 16.7869 32.9449 16.4371" fill="#34D186"/>
</svg>
