<svg width="100" height="36" viewBox="0 0 100 36" fill="none" xmlns="http://www.w3.org/2000/svg">
<rect width="100" height="36" rx="16" fill="#D7F6E5"/>
<path d="M29.639 23.168C28.6497 23.168 27.8004 22.958 27.091 22.538C26.3817 22.1087 25.8357 21.516 25.453 20.76C25.0704 19.9947 24.879 19.1127 24.879 18.114C24.879 17.1153 25.0704 16.2333 25.453 15.468C25.8357 14.7027 26.3817 14.1053 27.091 13.676C27.8004 13.2467 28.6497 13.032 29.639 13.032C30.815 13.032 31.7764 13.326 32.523 13.914C33.279 14.4927 33.7504 15.3093 33.937 16.364H31.963C31.8417 15.832 31.5804 15.4167 31.179 15.118C30.787 14.81 30.2644 14.656 29.611 14.656C28.7057 14.656 27.9964 14.964 27.483 15.58C26.9697 16.196 26.713 17.0407 26.713 18.114C26.713 19.1873 26.9697 20.032 27.483 20.648C27.9964 21.2547 28.7057 21.558 29.611 21.558C30.2644 21.558 30.787 21.418 31.179 21.138C31.5804 20.8487 31.8417 20.452 31.963 19.948H33.937C33.7504 20.956 33.279 21.7447 32.523 22.314C31.7764 22.8833 30.815 23.168 29.639 23.168ZM35.4813 23V12.92H37.2733V17.12C37.5066 16.7373 37.8193 16.4387 38.2113 16.224C38.6126 16 39.07 15.888 39.5833 15.888C40.442 15.888 41.1046 16.1587 41.5713 16.7C42.0473 17.2413 42.2853 18.0347 42.2853 19.08V23H40.5073V19.248C40.5073 18.6507 40.386 18.1933 40.1433 17.876C39.91 17.5587 39.5366 17.4 39.0233 17.4C38.5193 17.4 38.0993 17.5773 37.7633 17.932C37.4366 18.2867 37.2733 18.7813 37.2733 19.416V23H35.4813ZM46.3929 23.168C45.7955 23.168 45.3055 23.0747 44.9229 22.888C44.5402 22.692 44.2555 22.4353 44.0689 22.118C43.8822 21.8007 43.7889 21.4507 43.7889 21.068C43.7889 20.424 44.0409 19.9013 44.5449 19.5C45.0489 19.0987 45.8049 18.898 46.8129 18.898H48.5769V18.73C48.5769 18.254 48.4415 17.904 48.1709 17.68C47.9002 17.456 47.5642 17.344 47.1629 17.344C46.7989 17.344 46.4815 17.4327 46.2109 17.61C45.9402 17.778 45.7722 18.03 45.7069 18.366H43.9569C44.0035 17.862 44.1715 17.4233 44.4609 17.05C44.7595 16.6767 45.1422 16.392 45.6089 16.196C46.0755 15.9907 46.5982 15.888 47.1769 15.888C48.1662 15.888 48.9455 16.1353 49.5149 16.63C50.0842 17.1247 50.3689 17.8247 50.3689 18.73V23H48.8429L48.6749 21.88C48.4695 22.2533 48.1802 22.5613 47.8069 22.804C47.4429 23.0467 46.9715 23.168 46.3929 23.168ZM46.7989 21.768C47.3122 21.768 47.7089 21.6 47.9889 21.264C48.2782 20.928 48.4602 20.5127 48.5349 20.018H47.0089C46.5329 20.018 46.1922 20.1067 45.9869 20.284C45.7815 20.452 45.6789 20.662 45.6789 20.914C45.6789 21.1847 45.7815 21.3947 45.9869 21.544C46.1922 21.6933 46.4629 21.768 46.7989 21.768ZM52.0789 23V16.056H53.6609L53.8009 17.232C54.0156 16.8213 54.3236 16.4947 54.7249 16.252C55.1356 16.0093 55.6163 15.888 56.1669 15.888C57.0256 15.888 57.6929 16.1587 58.1689 16.7C58.6449 17.2413 58.8829 18.0347 58.8829 19.08V23H57.0909V19.248C57.0909 18.6507 56.9696 18.1933 56.7269 17.876C56.4843 17.5587 56.1063 17.4 55.5929 17.4C55.0889 17.4 54.6736 17.5773 54.3469 17.932C54.0296 18.2867 53.8709 18.7813 53.8709 19.416V23H52.0789ZM63.5365 20.928C63.2005 20.928 62.8879 20.8907 62.5985 20.816L62.0805 21.334C62.2392 21.418 62.4539 21.488 62.7245 21.544C62.9952 21.6 63.4339 21.656 64.0405 21.712C64.9645 21.796 65.6365 22.0153 66.0565 22.37C66.4765 22.7247 66.6865 23.2147 66.6865 23.84C66.6865 24.2507 66.5745 24.638 66.3505 25.002C66.1265 25.3753 65.7812 25.674 65.3145 25.898C64.8479 26.1313 64.2505 26.248 63.5225 26.248C62.5332 26.248 61.7352 26.0613 61.1285 25.688C60.5219 25.324 60.2185 24.7733 60.2185 24.036C60.2185 23.4107 60.5219 22.8693 61.1285 22.412C60.9419 22.328 60.7785 22.2393 60.6385 22.146C60.5079 22.0527 60.3912 21.9547 60.2885 21.852V21.53L61.5065 20.242C60.9652 19.766 60.6945 19.1547 60.6945 18.408C60.6945 17.9413 60.8065 17.5167 61.0305 17.134C61.2639 16.7513 61.5905 16.448 62.0105 16.224C62.4305 16 62.9392 15.888 63.5365 15.888C63.9285 15.888 64.2925 15.944 64.6285 16.056H67.2605V17.148L66.0705 17.232C66.2572 17.5867 66.3505 17.9787 66.3505 18.408C66.3505 18.8747 66.2385 19.2993 66.0145 19.682C65.7905 20.0647 65.4639 20.368 65.0345 20.592C64.6145 20.816 64.1152 20.928 63.5365 20.928ZM63.5365 19.556C63.9005 19.556 64.1992 19.458 64.4325 19.262C64.6752 19.066 64.7965 18.786 64.7965 18.422C64.7965 18.058 64.6752 17.778 64.4325 17.582C64.1992 17.386 63.9005 17.288 63.5365 17.288C63.1539 17.288 62.8459 17.386 62.6125 17.582C62.3792 17.778 62.2625 18.058 62.2625 18.422C62.2625 18.786 62.3792 19.066 62.6125 19.262C62.8459 19.458 63.1539 19.556 63.5365 19.556ZM61.8565 23.854C61.8565 24.1993 62.0152 24.456 62.3325 24.624C62.6592 24.8013 63.0559 24.89 63.5225 24.89C63.9705 24.89 64.3345 24.7967 64.6145 24.61C64.8945 24.4327 65.0345 24.19 65.0345 23.882C65.0345 23.63 64.9412 23.42 64.7545 23.252C64.5772 23.084 64.2179 22.9813 63.6765 22.944C63.2939 22.916 62.9392 22.874 62.6125 22.818C62.3419 22.9673 62.1459 23.1307 62.0245 23.308C61.9125 23.4853 61.8565 23.6673 61.8565 23.854ZM71.6678 23.168C70.9678 23.168 70.3471 23.0187 69.8058 22.72C69.2645 22.4213 68.8398 22.0013 68.5318 21.46C68.2238 20.9187 68.0698 20.2933 68.0698 19.584C68.0698 18.8653 68.2191 18.226 68.5178 17.666C68.8258 17.106 69.2458 16.672 69.7778 16.364C70.3191 16.0467 70.9538 15.888 71.6818 15.888C72.3631 15.888 72.9651 16.0373 73.4878 16.336C74.0105 16.6347 74.4165 17.0453 74.7058 17.568C75.0045 18.0813 75.1538 18.6553 75.1538 19.29C75.1538 19.3927 75.1491 19.5 75.1398 19.612C75.1398 19.724 75.1351 19.8407 75.1258 19.962H69.8478C69.8851 20.5033 70.0718 20.928 70.4078 21.236C70.7531 21.544 71.1685 21.698 71.6538 21.698C72.0178 21.698 72.3211 21.6187 72.5638 21.46C72.8158 21.292 73.0025 21.0773 73.1238 20.816H74.9438C74.8131 21.2547 74.5938 21.656 74.2858 22.02C73.9871 22.3747 73.6138 22.6547 73.1658 22.86C72.7271 23.0653 72.2278 23.168 71.6678 23.168ZM71.6818 17.344C71.2431 17.344 70.8558 17.47 70.5198 17.722C70.1838 17.9647 69.9691 18.338 69.8758 18.842H73.3338C73.3058 18.3847 73.1378 18.0207 72.8298 17.75C72.5218 17.4793 72.1391 17.344 71.6818 17.344Z" fill="#34D186"/>
</svg>
