<svg width="160" height="120" viewBox="0 0 160 120" fill="none" xmlns="http://www.w3.org/2000/svg">
<g filter="url(#filter0_d_596_6554)">
<g clip-path="url(#clip0_596_6554)">
<g clip-path="url(#clip1_596_6554)">
<path d="M132.632 16H27.3682C23.2988 16 20 19.4399 20 23.6833V88.3167C20 92.5601 23.2988 96 27.3682 96H132.632C136.701 96 140 92.5601 140 88.3167V23.6833C140 19.4399 136.701 16 132.632 16Z" fill="url(#paint0_linear_596_6554)"/>
<path fill-rule="evenodd" clip-rule="evenodd" d="M52.0037 55.2373L52.538 53.0379C54.591 52.3927 58.7813 52.0995 59.5687 54.4162C60.0187 55.7652 58.725 61.3663 58.4719 63.0086L56.4752 63.0379C56.0253 62.4514 56.3909 63.5364 56.0815 62.0995C54.1692 63.8883 50.0914 63.5951 50.4007 59.988C50.7101 56.4103 53.6911 56.8795 56.9252 56.3517C56.8689 54.0643 54.1129 54.6801 51.9756 55.208L52.0037 55.2373ZM67.0494 54.8854C65.2214 54.8854 64.9402 54.4748 63.3372 55.208C63.534 57.2901 64.5746 56.469 66.0089 57.466C68.7368 59.3429 65.812 65.1493 59.3156 62.6567L59.6812 60.5452C61.5092 60.9265 62.4373 61.3077 63.8434 60.4866C64.1809 57.5247 59.1469 59.4602 60.553 54.7094C61.3123 52.1288 64.659 52.4807 67.415 52.7446L67.0213 54.8854H67.0494ZM39.0391 50.3986L43.3419 50.5452L43.7918 57.5833L46.126 51.9528C46.9135 49.9294 46.3791 50.3693 51.3288 50.4279L49.1071 63.0086L46.6885 62.9792L48.0103 53.947L44.4387 63.0379L41.542 62.9499C41.4577 61.1904 41.317 55.0027 40.8671 53.8297L39.4047 62.9792L36.8736 62.9499L39.0391 50.3986ZM80.0703 77.1141L81.2514 75.6479C78.8891 75.3253 78.4673 76.0291 77.3986 74.035L82.8263 73.9763C83.1638 73.3898 83.7262 72.8326 84.0074 72.1581C77.8204 71.7182 76.0768 73.3605 75.0925 70.5452H85.0199L86.1167 68.7564L73.8551 68.6977L73.2927 67.2021L86.5104 67.1435C87.2697 66.7036 87.2697 66.205 87.4666 65.296L74.9519 65.2666C72.7021 65.296 72.5615 65.8238 72.1396 63.6831H87.8884L88.3946 61.8649L83.7825 61.8062L83.5575 63.0379L80.9139 62.9206L82.5732 52.686L85.0761 53.0379C85.0761 53.0965 85.1324 53.3018 85.1324 53.3898C85.1324 53.4484 85.1605 53.5364 85.1605 53.5658L85.3011 54.0936C86.0042 53.2138 86.4541 52.5687 88.0853 52.6273L87.2416 55.0027C86.7635 55.6479 85.3573 54.9147 84.7668 56.6743L87.5228 56.7916C87.8321 54.944 88.1696 54.3869 88.6758 52.8913L88.704 52.0115L71.4647 52.0408L71.4084 52.686C72.3365 52.686 72.3084 52.51 72.8427 52.9792L72.5896 54.7094C70.846 55.1493 70.9022 54.0643 70.7335 56.4396C70.9866 56.8795 70.6772 56.6449 71.2116 56.7916L72.3084 56.8209C74.0801 50.8092 79.3672 52.1288 80.5765 54.0056C81.2233 55.0027 81.8701 58.2872 80.2671 58.5511L74.8957 58.6097C75.1488 61.5716 78.411 60.9558 80.5202 60.2226C80.4359 61.4543 80.5202 62.4514 79.4234 62.8619C78.5516 63.1845 76.7236 63.0965 75.7675 62.8619C73.4052 62.3048 72.3927 61.0731 72.224 58.4045L71.2116 58.3751C70.2835 57.9353 71.0147 58.3751 70.5366 57.1728C70.1429 59.6361 69.0742 61.2197 71.999 60.8678C71.8303 62.3341 72.0271 62.8326 70.4804 63.0086C65.9807 63.5658 67.4431 60.4279 68.1743 56.2344C69.3273 49.5482 68.4274 50.3693 71.6897 50.4279L88.4509 50.4572L88.1134 48.6391L71.9146 48.5804L72.224 47.1141L87.5509 47.0262C87.1572 44.5335 87.0728 45.1493 81.5045 45.1493H73.0114C73.602 43.0086 73.2927 43.5951 78.8047 43.5951H86.2573L85.4698 41.7476L74.6707 41.7182L75.4019 40.1933L84.4293 40.1347C83.2763 37.6713 83.3325 38.3751 76.9486 38.2578C77.7642 36.1464 79.1984 36.6743 81.7014 36.6743C80.9983 35.5012 80.4921 35.5892 80.0703 34.5921C79.0297 34.035 78.1017 33.0379 77.0611 32.2754C69.1024 26.4103 58.3032 25.7945 49.6414 30.1933C41.8514 34.1229 34.202 43.2138 34.2863 55.7945C34.3988 73.771 49.5289 86.8795 66.6557 83.8297C74.6988 82.3927 76.7236 78.991 80.0421 77.0848L80.0703 77.1141Z" fill="#E41D2C"/>
<path fill-rule="evenodd" clip-rule="evenodd" d="M98.4343 52.9502C107.152 51.1027 105.718 55.5895 105.015 59.2259C104.79 60.3109 104.79 62.4517 103.975 63.0382C103.778 63.0382 102.625 63.0675 102.512 63.0089C101.725 62.6863 102.09 63.654 101.978 62.1584C99.6155 63.5661 95.8751 63.8886 96.3251 59.959C96.6907 56.8212 99.728 56.3226 102.821 56.4693C102.709 54.1526 100.684 54.5338 97.8719 55.2669L98.4624 52.9502H98.4343ZM107.04 52.6863L109.374 52.7156C109.402 52.7743 109.43 52.8622 109.43 52.9209L109.796 54.0059C110.218 53.3314 111.005 52.7449 112.243 52.7156L111.905 54.7977L110.752 55.2669C108.446 56.0587 108.587 59.0792 107.968 63.0382H105.353L107.04 52.6863ZM119.442 50.4575H121.832L119.78 63.0675C117.108 63.0968 117.755 63.2435 116.911 62.1878C115.167 64.8857 109.937 62.393 111.54 56.8212C112.721 52.657 116.714 51.5426 118.683 54.0059L119.47 50.4282L119.442 50.4575ZM80.0983 34.6218C80.5201 35.6188 81.0544 35.5309 81.7294 36.7039C79.2264 36.7039 77.7922 36.1467 76.9766 38.2875C83.3605 38.4048 83.3043 37.7009 84.4573 40.1643L75.4299 40.2229L74.6987 41.7479L85.4978 41.7772L86.2853 43.6247H78.8327C73.3488 43.6247 73.63 43.0675 73.0394 45.179H81.5325C87.1008 45.179 87.1852 44.5631 87.5789 47.0558L72.252 47.1438L71.9426 48.61L88.1414 48.6687L88.4788 50.4869L71.7177 50.4575L71.4927 52.0998L88.732 52.0704L88.7038 52.9502C89.9975 51.6599 89.7725 50.9854 92.1911 50.2523C94.1878 49.6658 95.4533 50.1056 97.4219 50.5455L97.0001 53.2435C93.6253 52.1878 91.4317 52.4517 90.6443 56.088C89.7725 59.9883 92.7254 61.4546 95.847 59.9004C95.5658 62.7449 95.1158 63.4487 91.9098 63.0089C89.6881 62.7156 89.0132 61.6012 88.0289 60.2229H84.0073L83.7823 61.8358L88.3945 61.8945L87.8883 63.7127H72.1395C72.5613 65.8534 72.702 65.3256 74.9518 65.2963L87.4664 65.3256C87.2414 66.2053 87.2696 66.7332 86.5103 67.1731L73.2925 67.2317L73.855 68.7273L86.1165 68.786L85.0197 70.5748H75.0924C76.0767 73.3608 77.8203 71.7479 84.0073 72.1878C83.7261 72.8622 83.1636 73.4194 82.8262 74.0059L77.3985 74.0646C78.439 76.0294 78.889 75.3549 81.2513 75.6775L80.0701 77.1438C84.0917 80.2229 87.2133 82.8036 93.7097 83.9766C99.6155 85.0323 105.774 83.8593 110.527 81.4253C131.113 70.8388 130.551 40.3402 110.358 30.2523C103.103 26.6452 93.4847 26.3226 85.9759 30.4282C82.3481 32.393 81.4763 33.8007 80.1264 34.6511L80.0983 34.6218Z" fill="#F8B02B"/>
<path fill-rule="evenodd" clip-rule="evenodd" d="M36.8735 62.9794L39.4046 63.0087L40.867 53.8592C41.3169 55.0322 41.4576 61.2199 41.5419 62.9794L44.4386 63.0674L48.0102 53.9765L46.6884 63.0087L49.107 63.038L51.3287 50.4574C46.379 50.3987 46.9134 49.9589 46.1259 51.9823L43.7917 57.6128L43.3418 50.5747L39.039 50.4281L36.8735 62.9794ZM115.224 60.6627C113.114 58.4046 114.914 54.6509 116.883 55.1495C118.823 55.648 118.458 60.604 115.224 60.6627ZM118.655 54.0058C116.686 51.5424 112.721 52.6568 111.511 56.821C109.908 62.3636 115.139 64.8856 116.883 62.1876C117.727 63.2433 117.08 63.0674 119.751 63.0674L121.804 50.4574H119.414L118.627 54.0351L118.655 54.0058ZM99.3343 60.692C98.9406 58.7272 100.684 57.9647 102.343 58.3166C102.428 60.3108 101.078 61.3958 99.3343 60.692ZM98.4343 52.9794L97.8438 55.2961C100.656 54.5923 102.709 54.2111 102.793 56.4985C99.6999 56.3518 96.6626 56.8504 96.297 59.9882C95.8189 63.9178 99.5874 63.5952 101.95 62.1876C102.062 63.6832 101.697 62.7155 102.484 63.038C102.597 63.0967 103.75 63.0674 103.946 63.0674C104.79 62.5102 104.79 60.3401 104.987 59.2551C105.718 55.5894 107.124 51.1319 98.4062 52.9794H98.4343ZM56.4751 58.2287C56.5314 59.2257 56.3626 59.9882 55.7439 60.4867C55.3221 60.8093 54.0566 61.1905 53.5504 60.692C51.9755 59.1964 54.9284 58.1993 56.447 58.2287H56.4751ZM52.0036 55.2375C54.1409 54.7096 56.897 54.0938 56.9532 56.3812C53.7191 56.909 50.7381 56.4398 50.4287 60.0175C50.0913 63.6246 54.1691 63.9178 56.1095 62.129C56.4189 63.5659 56.0533 62.4809 56.5033 63.0674L58.5 63.038C58.7531 61.3665 60.0467 55.7946 59.5968 54.4457C58.8093 52.0996 54.6471 52.3929 52.5661 53.0674L52.0317 55.2668L52.0036 55.2375ZM75.3174 56.7037C75.683 55.2081 76.3017 54.5923 77.9609 54.8269C78.5515 55.7067 78.5515 55.4427 78.664 56.7037H75.3174ZM72.3364 56.8504L72.2239 58.4339C72.3926 61.1026 73.4332 62.3049 75.7674 62.8914C76.7235 63.126 78.5515 63.214 79.4233 62.8914C80.5201 62.5102 80.4358 61.4838 80.5201 60.2521C78.4109 60.9853 75.1487 61.6011 74.8956 58.6392L80.267 58.5806C81.87 58.3166 81.2232 55.0615 80.5764 54.0351C79.3671 52.1583 74.08 50.8386 72.3083 56.8504H72.3364ZM88.7039 52.9501C88.1976 54.4457 87.8602 55.0029 87.5508 56.8504V58.4633L88.0289 60.2521C89.0132 61.6304 89.6882 62.7448 91.9099 63.038C95.1159 63.4779 95.5658 62.7741 95.847 59.9295C92.6973 61.4838 89.7725 60.0175 90.6443 56.1172C91.4599 52.4515 93.6535 52.2169 97.0001 53.2726L97.4219 50.5747C95.4533 50.1641 94.1878 49.7243 92.1911 50.2814C89.7725 50.9853 89.9975 51.6891 88.7039 52.9794V52.9501ZM67.4149 52.7448C64.6589 52.5102 61.3123 52.129 60.5529 54.7096C59.1468 59.4603 64.1527 57.5248 63.8433 60.4867C62.409 61.3078 61.5091 60.9266 59.6811 60.5454L59.3155 62.6568C65.8119 65.1495 68.7085 59.3724 66.0088 57.4662C64.5745 56.4691 63.534 57.3196 63.3371 55.2081C64.9401 54.4457 65.1932 54.8856 67.0493 54.8856L67.443 52.7448H67.4149Z" fill="#FEFEFE"/>
<path fill-rule="evenodd" clip-rule="evenodd" d="M70.5649 57.2023L70.7618 56.4984C70.9305 54.1231 70.8743 55.2081 72.6179 54.7682L72.871 53.038C72.3367 52.5688 72.3648 52.7448 71.4367 52.7448L71.493 52.0996L71.718 50.4574C68.4557 50.3987 69.3557 49.5776 68.2026 56.2638C67.4714 60.4574 66.009 63.5952 70.5087 63.038C72.0273 62.8621 71.8586 62.3635 72.0273 60.8973C69.1307 61.2492 70.1993 59.6656 70.5649 57.2023ZM83.7827 61.865L84.0076 60.2521L84.2889 58.4926L84.7951 56.733C85.4138 54.9735 86.8199 55.7067 87.2699 55.0615L88.1136 52.6861C86.4543 52.6275 86.0044 53.2726 85.3294 54.1524L85.1888 53.6245C85.1888 53.5952 85.1607 53.5072 85.1607 53.4486C85.1607 53.3899 85.1044 53.1553 85.1044 53.0967L82.6015 52.7448L80.9423 62.9794L83.5858 63.0967L83.8108 61.865H83.7827ZM105.353 63.038H107.968C108.587 59.0791 108.446 56.0586 110.752 55.2668L111.905 54.7976L112.243 52.7154C111.006 52.7448 110.218 53.3313 109.796 54.0058L109.431 52.9207C109.403 52.8621 109.403 52.7741 109.374 52.7154L107.04 52.6861L105.353 63.038Z" fill="#FEFEFE"/>
<path fill-rule="evenodd" clip-rule="evenodd" d="M115.224 60.6628C118.486 60.6041 118.852 55.6481 116.883 55.1496C114.886 54.651 113.115 58.4047 115.224 60.6628Z" fill="#F8B02B"/>
<path fill-rule="evenodd" clip-rule="evenodd" d="M56.4753 58.2287C54.9567 58.1993 52.0038 59.1964 53.5787 60.692C54.0849 61.1612 55.3504 60.78 55.7723 60.4867C56.391 60.0175 56.5316 59.2257 56.5035 58.2287H56.4753ZM84.0076 60.2228L88.0291 60.2521L87.551 58.4633H84.2888L84.0076 60.2228Z" fill="#E41D2C"/>
<path fill-rule="evenodd" clip-rule="evenodd" d="M99.3343 60.6919C101.106 61.3664 102.428 60.3107 102.343 58.3165C100.656 57.9939 98.9406 58.7564 99.3343 60.6919ZM84.2886 58.4631H87.5508V56.8502L84.7948 56.7036L84.2886 58.4631Z" fill="#F8B02B"/>
<path fill-rule="evenodd" clip-rule="evenodd" d="M75.3174 56.7036H78.664C78.5796 55.4719 78.5515 55.7065 77.9609 54.8268C76.3017 54.5922 75.683 55.208 75.3174 56.7036Z" fill="#E41D2C"/>
<path fill-rule="evenodd" clip-rule="evenodd" d="M70.5649 57.2024C71.043 58.4047 70.3118 57.9648 71.2399 58.4047L72.2523 58.434L72.3648 56.8505L71.268 56.8211C70.7056 56.7038 71.0149 56.9091 70.7899 56.4692L70.5931 57.1731L70.5649 57.2024Z" fill="#F8B02B"/>
</g>
</g>
</g>
<defs>
<filter id="filter0_d_596_6554" x="0" y="0" width="160" height="120" filterUnits="userSpaceOnUse" color-interpolation-filters="sRGB">
<feFlood flood-opacity="0" result="BackgroundImageFix"/>
<feColorMatrix in="SourceAlpha" type="matrix" values="0 0 0 0 0 0 0 0 0 0 0 0 0 0 0 0 0 0 127 0" result="hardAlpha"/>
<feOffset dy="4"/>
<feGaussianBlur stdDeviation="10"/>
<feComposite in2="hardAlpha" operator="out"/>
<feColorMatrix type="matrix" values="0 0 0 0 0 0 0 0 0 0 0 0 0 0 0 0 0 0 0.3 0"/>
<feBlend mode="normal" in2="BackgroundImageFix" result="effect1_dropShadow_596_6554"/>
<feBlend mode="normal" in="SourceGraphic" in2="effect1_dropShadow_596_6554" result="shape"/>
</filter>
<linearGradient id="paint0_linear_596_6554" x1="79.9989" y1="16.0111" x2="79.9989" y2="96.0173" gradientUnits="userSpaceOnUse">
<stop stop-color="#1D4C80"/>
<stop offset="1" stop-color="#173A63"/>
</linearGradient>
<clipPath id="clip0_596_6554">
<rect x="20" y="16" width="120" height="80" rx="8" fill="white"/>
</clipPath>
<clipPath id="clip1_596_6554">
<rect x="20" y="16" width="120" height="80" rx="8" fill="white"/>
</clipPath>
</defs>
</svg>
