<svg width="20" height="26" viewBox="0 0 20 26" fill="none" xmlns="http://www.w3.org/2000/svg">
<g clip-path="url(#clip0_546_6384)">
<path d="M19.4724 14.8878C19.1479 11.2078 17.417 8.95889 15.7943 6.91444C14.1716 4.87 12.9816 3.33667 12.9816 0.985556C12.9816 0.781111 12.8734 0.576667 12.6571 0.576667C12.4407 0.474444 12.2243 0.474444 12.1162 0.576667C9.62802 2.31444 7.89714 4.76778 7.0317 7.52778C6.70716 9.16333 6.4908 10.9011 6.4908 12.6389C4.3272 12.23 3.7863 9.06111 3.7863 9.06111C3.7863 8.85667 3.46176 8.65222 3.13722 8.65222H3.02904C2.92086 8.75445 0.21636 10.0833 0 15.2967V15.8078C0 20.9189 4.3272 25.0078 9.7362 25.0078C15.1452 25.0078 19.4724 20.9189 19.4724 15.8078V14.8878ZM6.4908 20.7144V20.51C6.4908 19.8967 6.59898 19.3856 6.81534 18.8744C7.13988 19.59 7.78896 20.1011 8.6544 20.1011C8.97894 20.1011 9.1953 19.8967 9.1953 19.59C9.1953 18.7722 9.1953 18.0567 9.41166 17.2389C9.62802 16.5233 9.95256 15.8078 10.4935 15.2967C10.7098 16.0122 11.1425 16.6256 11.5753 17.2389C12.3325 18.1589 12.8734 19.2833 12.9816 20.4078V20.7144C12.9816 22.4522 11.5753 23.8833 9.7362 23.9856C7.89714 23.8833 6.38262 22.4522 6.4908 20.7144Z" fill="#34D186"/>
</g>
<defs>
<clipPath id="clip0_546_6384">
<rect width="19.4724" height="24.5078" fill="white" transform="translate(0 0.5)"/>
</clipPath>
</defs>
</svg>
