<svg width="37" height="35" viewBox="0 0 37 35" fill="none" xmlns="http://www.w3.org/2000/svg">
<circle cx="17.5" cy="17.5" r="17.5" fill="#EBEBEB"/>
<circle cx="31" cy="7" r="5.3" fill="#34D186" stroke="white" stroke-width="1.4"/>
<path d="M24 16.6667C24.0023 17.5466 23.7967 18.4146 23.4 19.2C22.9296 20.1412 22.2065 20.9328 21.3116 21.4862C20.4168 22.0396 19.3855 22.3329 18.3333 22.3334C17.4534 22.3356 16.5854 22.1301 15.8 21.7334L12 23L13.2667 19.2C12.87 18.4146 12.6644 17.5466 12.6667 16.6667C12.6671 15.6145 12.9604 14.5833 13.5138 13.6884C14.0672 12.7935 14.8588 12.0704 15.8 11.6C16.5854 11.2033 17.4534 10.9977 18.3333 11H18.6667C20.0562 11.0767 21.3687 11.6632 22.3528 12.6473C23.3368 13.6313 23.9233 14.9438 24 16.3334V16.6667Z" stroke="#838383" stroke-linecap="round" stroke-linejoin="round"/>
</svg>
