<svg width="68" height="26" viewBox="0 0 68 26" fill="none" xmlns="http://www.w3.org/2000/svg">
<rect width="68" height="26" rx="4" fill="#E0E0E0"/>
<path d="M16.6039 16.632C16.0906 16.632 15.6286 16.5147 15.2179 16.28C14.8072 16.0453 14.4809 15.7153 14.2389 15.29C14.0042 14.8573 13.8869 14.3513 13.8869 13.772C13.8869 13.1927 14.0079 12.6903 14.2499 12.265C14.4919 11.8323 14.8182 11.4987 15.2289 11.264C15.6469 11.0293 16.1126 10.912 16.6259 10.912C17.1392 10.912 17.6012 11.0293 18.0119 11.264C18.4226 11.4987 18.7452 11.8323 18.9799 12.265C19.2219 12.6903 19.3429 13.1927 19.3429 13.772C19.3429 14.3513 19.2219 14.8573 18.9799 15.29C18.7379 15.7153 18.4079 16.0453 17.9899 16.28C17.5792 16.5147 17.1172 16.632 16.6039 16.632ZM16.6039 15.84C16.9192 15.84 17.2126 15.763 17.4839 15.609C17.7552 15.455 17.9752 15.224 18.1439 14.916C18.3126 14.608 18.3969 14.2267 18.3969 13.772C18.3969 13.3173 18.3126 12.936 18.1439 12.628C17.9826 12.32 17.7662 12.089 17.4949 11.935C17.2236 11.781 16.9339 11.704 16.6259 11.704C16.3106 11.704 16.0172 11.781 15.7459 11.935C15.4746 12.089 15.2546 12.32 15.0859 12.628C14.9172 12.936 14.8329 13.3173 14.8329 13.772C14.8329 14.2267 14.9172 14.608 15.0859 14.916C15.2546 15.224 15.4709 15.455 15.7349 15.609C16.0062 15.763 16.2959 15.84 16.6039 15.84ZM20.6277 18.92V11.044H21.4637L21.5517 11.946C21.7277 11.682 21.977 11.4437 22.2997 11.231C22.6297 11.0183 23.0477 10.912 23.5537 10.912C24.0963 10.912 24.5693 11.0367 24.9727 11.286C25.376 11.5353 25.6877 11.8763 25.9077 12.309C26.135 12.7417 26.2487 13.233 26.2487 13.783C26.2487 14.333 26.135 14.8243 25.9077 15.257C25.6877 15.6823 25.3723 16.0197 24.9617 16.269C24.5583 16.511 24.0853 16.632 23.5427 16.632C23.0953 16.632 22.6957 16.5403 22.3437 16.357C21.999 16.1737 21.735 15.917 21.5517 15.587V18.92H20.6277ZM23.4437 15.829C23.8103 15.829 24.133 15.7447 24.4117 15.576C24.6903 15.4 24.9103 15.158 25.0717 14.85C25.233 14.542 25.3137 14.1827 25.3137 13.772C25.3137 13.3613 25.233 13.002 25.0717 12.694C24.9103 12.386 24.6903 12.1477 24.4117 11.979C24.133 11.803 23.8103 11.715 23.4437 11.715C23.077 11.715 22.7543 11.803 22.4757 11.979C22.197 12.1477 21.977 12.386 21.8157 12.694C21.6543 13.002 21.5737 13.3613 21.5737 13.772C21.5737 14.1827 21.6543 14.542 21.8157 14.85C21.977 15.158 22.197 15.4 22.4757 15.576C22.7543 15.7447 23.077 15.829 23.4437 15.829ZM29.476 16.5C28.9774 16.5 28.585 16.379 28.299 16.137C28.013 15.895 27.87 15.4587 27.87 14.828V11.825H26.924V11.044H27.87L27.991 9.735H28.794V11.044H30.4V11.825H28.794V14.828C28.794 15.1727 28.8637 15.4073 29.003 15.532C29.1424 15.6493 29.388 15.708 29.74 15.708H30.312V16.5H29.476ZM32.1349 9.834C31.9516 9.834 31.7976 9.77533 31.6729 9.658C31.5556 9.53333 31.4969 9.37933 31.4969 9.196C31.4969 9.02 31.5556 8.87333 31.6729 8.756C31.7976 8.63867 31.9516 8.58 32.1349 8.58C32.3109 8.58 32.4613 8.63867 32.5859 8.756C32.7106 8.87333 32.7729 9.02 32.7729 9.196C32.7729 9.37933 32.7106 9.53333 32.5859 9.658C32.4613 9.77533 32.3109 9.834 32.1349 9.834ZM31.6729 16.5V11.044H32.5969V16.5H31.6729ZM36.6918 16.632C36.1784 16.632 35.7164 16.5147 35.3058 16.28C34.8951 16.0453 34.5688 15.7153 34.3268 15.29C34.0921 14.8573 33.9748 14.3513 33.9748 13.772C33.9748 13.1927 34.0958 12.6903 34.3378 12.265C34.5798 11.8323 34.9061 11.4987 35.3168 11.264C35.7348 11.0293 36.2004 10.912 36.7138 10.912C37.2271 10.912 37.6891 11.0293 38.0998 11.264C38.5104 11.4987 38.8331 11.8323 39.0678 12.265C39.3098 12.6903 39.4308 13.1927 39.4308 13.772C39.4308 14.3513 39.3098 14.8573 39.0678 15.29C38.8258 15.7153 38.4958 16.0453 38.0778 16.28C37.6671 16.5147 37.2051 16.632 36.6918 16.632ZM36.6918 15.84C37.0071 15.84 37.3004 15.763 37.5718 15.609C37.8431 15.455 38.0631 15.224 38.2318 14.916C38.4004 14.608 38.4848 14.2267 38.4848 13.772C38.4848 13.3173 38.4004 12.936 38.2318 12.628C38.0704 12.32 37.8541 12.089 37.5828 11.935C37.3114 11.781 37.0218 11.704 36.7138 11.704C36.3984 11.704 36.1051 11.781 35.8338 11.935C35.5624 12.089 35.3424 12.32 35.1738 12.628C35.0051 12.936 34.9208 13.3173 34.9208 13.772C34.9208 14.2267 35.0051 14.608 35.1738 14.916C35.3424 15.224 35.5588 15.455 35.8228 15.609C36.0941 15.763 36.3838 15.84 36.6918 15.84ZM40.7155 16.5V11.044H41.5515L41.6065 12.023C41.7825 11.6783 42.0355 11.407 42.3655 11.209C42.6955 11.011 43.0695 10.912 43.4875 10.912C44.1329 10.912 44.6462 11.11 45.0275 11.506C45.4162 11.8947 45.6105 12.496 45.6105 13.31V16.5H44.6865V13.409C44.6865 12.2723 44.2172 11.704 43.2785 11.704C42.8092 11.704 42.4169 11.8763 42.1015 12.221C41.7935 12.5583 41.6395 13.0423 41.6395 13.673V16.5H40.7155ZM48.8255 16.632C48.3708 16.632 47.9931 16.555 47.6925 16.401C47.3918 16.247 47.1681 16.0417 47.0215 15.785C46.8748 15.5283 46.8015 15.2497 46.8015 14.949C46.8015 14.3917 47.0141 13.9627 47.4395 13.662C47.8648 13.3613 48.4441 13.211 49.1775 13.211H50.6515V13.145C50.6515 12.6683 50.5268 12.309 50.2775 12.067C50.0281 11.8177 49.6945 11.693 49.2765 11.693C48.9171 11.693 48.6055 11.7847 48.3415 11.968C48.0848 12.144 47.9235 12.4043 47.8575 12.749H46.9115C46.9481 12.353 47.0801 12.0193 47.3075 11.748C47.5421 11.4767 47.8318 11.2713 48.1765 11.132C48.5211 10.9853 48.8878 10.912 49.2765 10.912C50.0391 10.912 50.6111 11.1173 50.9925 11.528C51.3811 11.9313 51.5755 12.4703 51.5755 13.145V16.5H50.7505L50.6955 15.521C50.5415 15.829 50.3141 16.093 50.0135 16.313C49.7201 16.5257 49.3241 16.632 48.8255 16.632ZM48.9685 15.851C49.3205 15.851 49.6211 15.7593 49.8705 15.576C50.1271 15.3927 50.3215 15.1543 50.4535 14.861C50.5855 14.5677 50.6515 14.2597 50.6515 13.937V13.926H49.2545C48.7118 13.926 48.3268 14.0213 48.0995 14.212C47.8795 14.3953 47.7695 14.6263 47.7695 14.905C47.7695 15.191 47.8721 15.422 48.0775 15.598C48.2901 15.7667 48.5871 15.851 48.9685 15.851ZM52.9616 16.5V8.58H53.8856V16.5H52.9616Z" fill="#9C9C9C"/>
</svg>
