<svg width="279" height="18" viewBox="0 0 279 18" fill="none" xmlns="http://www.w3.org/2000/svg">
<line x1="-4.37114e-08" y1="9.5" x2="118.793" y2="9.49999" stroke="black" stroke-opacity="0.1"/>
<path d="M159.344 9.49977L279 9.49977" stroke="black" stroke-opacity="0.1"/>
<path d="M136.001 14.168C135.348 14.168 134.76 14.0187 134.237 13.72C133.714 13.4213 133.299 13.0013 132.991 12.46C132.692 11.9093 132.543 11.2653 132.543 10.528C132.543 9.79067 132.697 9.15133 133.005 8.61C133.313 8.05933 133.728 7.63467 134.251 7.336C134.783 7.03733 135.376 6.888 136.029 6.888C136.682 6.888 137.27 7.03733 137.793 7.336C138.316 7.63467 138.726 8.05933 139.025 8.61C139.333 9.15133 139.487 9.79067 139.487 10.528C139.487 11.2653 139.333 11.9093 139.025 12.46C138.717 13.0013 138.297 13.4213 137.765 13.72C137.242 14.0187 136.654 14.168 136.001 14.168ZM136.001 13.16C136.402 13.16 136.776 13.062 137.121 12.866C137.466 12.67 137.746 12.376 137.961 11.984C138.176 11.592 138.283 11.1067 138.283 10.528C138.283 9.94933 138.176 9.464 137.961 9.072C137.756 8.68 137.48 8.386 137.135 8.19C136.79 7.994 136.421 7.896 136.029 7.896C135.628 7.896 135.254 7.994 134.909 8.19C134.564 8.386 134.284 8.68 134.069 9.072C133.854 9.464 133.747 9.94933 133.747 10.528C133.747 11.1067 133.854 11.592 134.069 11.984C134.284 12.376 134.559 12.67 134.895 12.866C135.24 13.062 135.609 13.16 136.001 13.16ZM141.122 14V7.056H142.186L142.284 8.386C142.499 7.92867 142.826 7.56467 143.264 7.294C143.703 7.02333 144.244 6.888 144.888 6.888V8.12H144.566C144.156 8.12 143.778 8.19467 143.432 8.344C143.087 8.484 142.812 8.72667 142.606 9.072C142.401 9.41733 142.298 9.89333 142.298 10.5V14H141.122Z" fill="#717171"/>
</svg>
