<svg width="140" height="140" viewBox="0 0 140 140" fill="none" xmlns="http://www.w3.org/2000/svg">
<g filter="url(#filter0_d_596_6547)">
<g clip-path="url(#clip0_596_6547)">
<path d="M97.5546 16H42.4454C30.0492 16 20 26.0492 20 38.4454V93.5546C20 105.951 30.0492 116 42.4454 116H97.5546C109.951 116 120 105.951 120 93.5546V38.4454C120 26.0492 109.951 16 97.5546 16Z" fill="url(#paint0_linear_596_6547)"/>
<path opacity="0.3" d="M88.8603 52.3701L88.6872 53.3746C86.401 65.0476 78.6421 69.0656 68.701 69.0656H63.6439C63.0585 69.0668 62.4927 69.2768 62.0483 69.6577C61.6039 70.0387 61.3099 70.5656 61.2192 71.1439L58.6213 87.5624L57.8939 92.2039C57.8635 92.3887 57.874 92.578 57.9247 92.7583C57.9753 92.9387 58.0649 93.1057 58.1871 93.2477C58.3093 93.3897 58.4611 93.5032 58.6319 93.5802C58.8027 93.6572 58.9882 93.6958 59.1755 93.6933H68.1468C68.6611 93.7 69.1608 93.5219 69.5549 93.1914C69.949 92.8608 70.2114 92.3998 70.2944 91.8921V91.4418L71.957 80.7387V80.1498C72.0324 79.6358 72.2915 79.1666 72.6864 78.829C73.0812 78.4915 73.5851 78.3085 74.1045 78.314H75.4554C84.1496 78.314 90.9386 74.8502 92.7744 64.4588C93.308 62.7065 93.423 60.8536 93.1102 59.0488C92.7974 57.244 92.0654 55.5378 90.9733 54.0674C90.3636 53.393 89.6503 52.82 88.8603 52.3701V52.3701Z" fill="white"/>
<path opacity="0.5" d="M86.4705 51.4346L85.3967 51.1574L84.2536 50.9496C82.7863 50.7286 81.3038 50.6244 79.82 50.6379H66.3111C65.7976 50.6407 65.3021 50.8275 64.9145 51.1643C64.5269 51.5011 64.2727 51.9656 64.1982 52.4737L61.3232 70.6587V71.1782C61.4139 70.5999 61.7079 70.073 62.1524 69.692C62.5968 69.3111 63.1625 69.1011 63.7479 69.1H68.8051C78.7462 69.1 86.5051 65.0819 88.7912 53.4089C88.7912 53.0625 88.7912 52.7162 88.9644 52.4044C88.3644 52.0868 87.7387 51.8203 87.0939 51.6077L86.4705 51.4346Z" fill="white"/>
<path d="M64.1634 52.4393C64.238 51.9312 64.4921 51.4666 64.8797 51.1298C65.2673 50.793 65.7628 50.6063 66.2763 50.6034H79.7852C81.2805 50.5881 82.7747 50.6924 84.2535 50.9152L85.3965 51.123L86.4703 51.4001H86.9899C87.6343 51.6134 88.26 51.8799 88.8603 52.1968C89.2985 50.4806 89.3163 48.6841 88.9123 46.9595C88.5083 45.235 87.6944 43.6333 86.5396 42.2903C83.9764 39.3807 79.3349 38.0991 73.4118 38.0991H56.0928C55.5074 38.1003 54.9416 38.3102 54.4972 38.6912C54.0528 39.0721 53.7588 39.5991 53.6681 40.1774L46.5327 85.865C46.5031 86.0744 46.5185 86.2877 46.5778 86.4907C46.6372 86.6936 46.739 86.8817 46.8766 87.0422C47.0143 87.2028 47.1845 87.3322 47.376 87.4219C47.5676 87.5115 47.776 87.5594 47.9875 87.5622H58.6213L61.2885 70.6242L64.1634 52.4393Z" fill="white"/>
</g>
</g>
<defs>
<filter id="filter0_d_596_6547" x="0" y="0" width="140" height="140" filterUnits="userSpaceOnUse" color-interpolation-filters="sRGB">
<feFlood flood-opacity="0" result="BackgroundImageFix"/>
<feColorMatrix in="SourceAlpha" type="matrix" values="0 0 0 0 0 0 0 0 0 0 0 0 0 0 0 0 0 0 127 0" result="hardAlpha"/>
<feOffset dy="4"/>
<feGaussianBlur stdDeviation="10"/>
<feComposite in2="hardAlpha" operator="out"/>
<feColorMatrix type="matrix" values="0 0 0 0 0 0 0 0 0 0 0 0 0 0 0 0 0 0 0.3 0"/>
<feBlend mode="normal" in2="BackgroundImageFix" result="effect1_dropShadow_596_6547"/>
<feBlend mode="normal" in="SourceGraphic" in2="effect1_dropShadow_596_6547" result="shape"/>
</filter>
<linearGradient id="paint0_linear_596_6547" x1="9.47004" y1="7.65223" x2="122.148" y2="116.277" gradientUnits="userSpaceOnUse">
<stop stop-color="#253B80"/>
<stop offset="1" stop-color="#179BD7"/>
</linearGradient>
<clipPath id="clip0_596_6547">
<rect x="20" y="16" width="100" height="100" rx="25" fill="white"/>
</clipPath>
</defs>
</svg>
