<svg width="24" height="24" viewBox="0 0 24 24" fill="none" xmlns="http://www.w3.org/2000/svg">
<g clip-path="url(#clip0_487_6148)">
<path d="M16.1796 5.24563C15.5264 4.4042 14.3457 4.04346 12.8353 4.04346H8.45153C8.30208 4.04346 8.15754 4.10372 8.04389 4.21341C7.93024 4.32309 7.85494 4.47499 7.83151 4.64181L6.0062 17.7262C5.96992 17.9842 6.14669 18.2178 6.37806 18.2178H9.08444L9.76412 13.3452L9.74303 13.4978C9.79145 13.1533 10.0521 12.8993 10.3607 12.8993H11.6468C14.1732 12.8993 16.1515 11.7395 16.7294 8.38428C16.7465 8.28505 16.7614 8.18846 16.7742 8.09411C16.7013 8.05045 16.7013 8.05045 16.7742 8.09411C16.9463 6.854 16.7731 6.00987 16.1796 5.24563Z" fill="#27346A"/>
<path d="M10.7997 7.64738C10.8737 7.60756 10.9546 7.58692 11.0365 7.58698H14.4733C14.8803 7.58698 15.2599 7.61691 15.6068 7.68001C15.7038 7.69751 15.8004 7.71839 15.8963 7.74264C16.0323 7.77654 16.1666 7.81804 16.299 7.86698C16.4695 7.93135 16.6283 8.00632 16.7743 8.09411C16.9463 6.85352 16.7731 6.00987 16.1796 5.24563C15.526 4.4042 14.3457 4.04346 12.8353 4.04346H8.45115C8.14248 4.04346 7.87989 4.29744 7.83151 4.64181L6.0062 17.7257C5.96992 17.9841 6.14669 18.2174 6.37769 18.2174H9.08444L10.4946 8.11042C10.5084 8.01108 10.5435 7.91703 10.5966 7.83637C10.6498 7.75571 10.7194 7.69085 10.7997 7.64738Z" fill="#27346A"/>
<path d="M16.7295 8.38392C16.1517 11.7386 14.1734 12.8989 11.6469 12.8989H10.3605C10.0519 12.8989 9.7912 13.153 9.74324 13.4974L8.89767 19.5559C8.86607 19.7817 9.02057 19.9864 9.2227 19.9864H11.5041C11.6348 19.9863 11.7612 19.9336 11.8605 19.8376C11.9599 19.7417 12.0257 19.6088 12.0461 19.4629L12.0683 19.3315L12.4983 16.2515L12.526 16.0812C12.5464 15.9354 12.6122 15.8025 12.7116 15.7065C12.8109 15.6106 12.9373 15.5579 13.068 15.5578H13.4094C15.6194 15.5578 17.3499 14.543 17.8556 11.6081C18.0667 10.3816 17.9575 9.35764 17.3991 8.63839C17.2297 8.42053 17.0194 8.24061 16.7744 8.09375C16.7611 8.18858 16.7467 8.28469 16.7295 8.38392Z" fill="#2790C3"/>
<path d="M16.1697 7.82156C16.0796 7.79183 15.9886 7.7655 15.897 7.74262C15.801 7.71877 15.7045 7.69803 15.6074 7.68043C15.2602 7.6169 14.8809 7.58692 14.4735 7.58692H11.0372C10.9552 7.58671 10.8742 7.60752 10.8003 7.64779C10.72 7.69113 10.6502 7.75595 10.597 7.83663C10.5439 7.91732 10.5089 8.01144 10.4952 8.11084L9.76475 13.3452L9.74365 13.4978C9.7917 13.1533 10.0523 12.8993 10.361 12.8993H11.6474C14.1739 12.8993 16.1521 11.7394 16.73 8.38427C16.7472 8.28503 16.7616 8.18888 16.7749 8.09409C16.6286 8.00678 16.4702 7.93134 16.2996 7.86739C16.2565 7.85127 16.2133 7.83599 16.1697 7.82156" fill="#1F264F"/>
</g>
<defs>
<clipPath id="clip0_487_6148">
<rect width="12" height="16" fill="white" transform="translate(6 4)"/>
</clipPath>
</defs>
</svg>
