<svg width="35" height="35" viewBox="0 0 35 35" fill="none" xmlns="http://www.w3.org/2000/svg">
<circle cx="17.5" cy="17.5" r="17.5" fill="#EBEBEB"/>
<g clip-path="url(#clip0_435_6342)">
<path d="M24.6669 21.2802V23.2802C24.6677 23.4659 24.6297 23.6497 24.5553 23.8198C24.4809 23.9899 24.3718 24.1426 24.235 24.2681C24.0982 24.3937 23.9367 24.4892 23.7608 24.5487C23.5849 24.6082 23.3985 24.6303 23.2136 24.6136C21.1622 24.3907 19.1916 23.6897 17.4603 22.5669C15.8495 21.5433 14.4838 20.1777 13.4603 18.5669C12.3336 16.8277 11.6324 14.8476 11.4136 12.7869C11.397 12.6025 11.4189 12.4167 11.4779 12.2413C11.537 12.0659 11.632 11.9047 11.7568 11.768C11.8816 11.6313 12.0335 11.522 12.2028 11.4472C12.3721 11.3725 12.5552 11.3337 12.7403 11.3336H14.7403C15.0638 11.3304 15.3775 11.4449 15.6228 11.6559C15.8681 11.8669 16.0283 12.1599 16.0736 12.4802C16.158 13.1203 16.3146 13.7487 16.5403 14.3536C16.63 14.5922 16.6494 14.8515 16.5962 15.1008C16.543 15.3501 16.4195 15.579 16.2403 15.7602L15.3936 16.6069C16.3427 18.2759 17.7246 19.6579 19.3936 20.6069L20.2403 19.7602C20.4215 19.581 20.6504 19.4575 20.8997 19.4043C21.149 19.3511 21.4083 19.3705 21.6469 19.4602C22.2518 19.6859 22.8802 19.8425 23.5203 19.9269C23.8441 19.9726 24.1399 20.1357 24.3513 20.3852C24.5627 20.6348 24.6751 20.9533 24.6669 21.2802Z" stroke="#838383" stroke-linecap="round" stroke-linejoin="round"/>
</g>
<defs>
<clipPath id="clip0_435_6342">
<rect width="16" height="16" fill="white" transform="translate(10 10)"/>
</clipPath>
</defs>
</svg>
