<svg width="24" height="24" viewBox="0 0 24 24" fill="none" xmlns="http://www.w3.org/2000/svg">
<g clip-path="url(#clip0_546_6379)">
<path d="M23.7623 11.5725L22.0571 13.3401L23.0666 15.5918L20.8665 16.6585L21.0529 19.125L18.626 19.3652L17.9731 21.7487L15.6114 21.1337L14.1918 23.1448L12.1813 21.7443L10.1706 23.1448L8.75101 21.1337L6.38934 21.7487L5.73645 19.3651L3.30955 19.125L3.49587 16.6585L1.29579 15.5918L2.30529 13.3401L0.600098 11.5725L2.30529 9.80473L1.29579 7.553L3.49587 6.48635L3.30955 4.01999L5.73645 3.77975L6.38934 1.3962L8.75101 2.0111L10.1706 0L12.1813 1.40049L14.1918 0L15.6114 2.0111L17.9731 1.3962L18.626 3.77975L21.0529 4.01999L20.8665 6.48635L23.0666 7.553L22.0571 9.80473L23.7623 11.5725Z" fill="#34D186"/>
<path d="M17.1801 9.03719L11.571 15.181C11.1935 15.6121 10.5463 15.6121 10.1688 15.181L7.79568 12.5402C7.47207 12.163 7.47207 11.5702 7.84961 11.1929C8.22714 10.8696 8.82041 10.8696 9.19795 11.2468L10.8699 13.1331L15.7778 7.79765C16.1554 7.4204 16.7487 7.36651 17.1262 7.74376C17.5037 8.06712 17.5037 8.71383 17.1801 9.03719Z" fill="white"/>
</g>
<defs>
<clipPath id="clip0_546_6379">
<rect width="23.1622" height="23.1448" fill="white" transform="translate(0.600098)"/>
</clipPath>
</defs>
</svg>
