<svg width="60" height="60" viewBox="0 0 60 60" fill="none" xmlns="http://www.w3.org/2000/svg">
<g filter="url(#filter0_d_546_6449)">
<g clip-path="url(#clip0_546_6449)">
<path d="M19.8 35.3998C19.6408 35.3998 19.4882 35.3366 19.3757 35.2241C19.2632 35.1115 19.2 34.9589 19.2 34.7998V26.3998C19.2 26.2407 19.2632 26.0881 19.3757 25.9755C19.4882 25.863 19.6408 25.7998 19.8 25.7998H22.8C23.7547 25.7998 24.6704 26.1791 25.3455 26.8542C26.0207 27.5294 26.4 28.445 26.4 29.3998V31.7998C26.4 31.9589 26.3367 32.1115 26.2242 32.2241C26.1117 32.3366 25.9591 32.3998 25.8 32.3998C25.6408 32.3998 25.4882 32.3366 25.3757 32.2241C25.2632 32.1115 25.2 31.9589 25.2 31.7998V29.3998C25.2 28.7633 24.9471 28.1528 24.497 27.7027C24.0469 27.2527 23.4365 26.9998 22.8 26.9998H20.4V34.7998C20.4 34.9589 20.3367 35.1115 20.2242 35.2241C20.1117 35.3366 19.9591 35.3998 19.8 35.3998V35.3998Z" fill="black" fill-opacity="0.35"/>
<path d="M28.8 35.3998H25.8C24.8452 35.3998 23.9295 35.0205 23.2544 34.3454C22.5792 33.6703 22.2 32.7546 22.2 31.7998V29.3998C22.2 29.2407 22.2632 29.0881 22.3757 28.9755C22.4882 28.863 22.6408 28.7998 22.8 28.7998C22.9591 28.7998 23.1117 28.863 23.2242 28.9755C23.3367 29.0881 23.4 29.2407 23.4 29.3998V31.7998C23.4 32.4363 23.6528 33.0468 24.1029 33.4969C24.553 33.9469 25.1634 34.1998 25.8 34.1998H28.2V26.3998C28.2 26.2407 28.2632 26.0881 28.3757 25.9755C28.4882 25.863 28.6408 25.7998 28.8 25.7998C28.9591 25.7998 29.1117 25.863 29.2242 25.9755C29.3367 26.0881 29.4 26.2407 29.4 26.3998V34.7998C29.4 34.9589 29.3367 35.1115 29.2242 35.2241C29.1117 35.3366 28.9591 35.3998 28.8 35.3998Z" fill="black" fill-opacity="0.35"/>
<path d="M32.8 35.3998C32.6408 35.3998 32.4882 35.3366 32.3757 35.2241C32.2632 35.1115 32.2 34.9589 32.2 34.7998V26.3998C32.2 26.2407 32.2632 26.0881 32.3757 25.9755C32.4882 25.863 32.6408 25.7998 32.8 25.7998H35.8C36.7547 25.7998 37.6704 26.1791 38.3455 26.8542C39.0207 27.5294 39.4 28.445 39.4 29.3998V31.7998C39.4 31.9589 39.3367 32.1115 39.2242 32.2241C39.1117 32.3366 38.9591 32.3998 38.8 32.3998C38.6408 32.3998 38.4882 32.3366 38.3757 32.2241C38.2632 32.1115 38.2 31.9589 38.2 31.7998V29.3998C38.2 28.7633 37.9471 28.1528 37.497 27.7027C37.0469 27.2527 36.4365 26.9998 35.8 26.9998H33.4V34.7998C33.4 34.9589 33.3367 35.1115 33.2242 35.2241C33.1117 35.3366 32.9591 35.3998 32.8 35.3998V35.3998Z" fill="black" fill-opacity="0.35"/>
<path d="M41.8 35.3998H38.8C37.8452 35.3998 36.9295 35.0205 36.2544 34.3454C35.5792 33.6703 35.2 32.7546 35.2 31.7998V29.3998C35.2 29.2407 35.2632 29.0881 35.3757 28.9755C35.4882 28.863 35.6408 28.7998 35.8 28.7998C35.9591 28.7998 36.1117 28.863 36.2242 28.9755C36.3367 29.0881 36.4 29.2407 36.4 29.3998V31.7998C36.4 32.4363 36.6528 33.0468 37.1029 33.4969C37.553 33.9469 38.1634 34.1998 38.8 34.1998H41.2V26.3998C41.2 26.2407 41.2632 26.0881 41.3757 25.9755C41.4882 25.863 41.6408 25.7998 41.8 25.7998C41.9591 25.7998 42.1117 25.863 42.2242 25.9755C42.3367 26.0881 42.4 26.2407 42.4 26.3998V34.7998C42.4 34.9589 42.3367 35.1115 42.2242 35.2241C42.1117 35.3366 41.9591 35.3998 41.8 35.3998Z" fill="black" fill-opacity="0.35"/>
</g>
<rect x="5.5" y="5.5" width="49" height="49" rx="24.5" stroke="black" stroke-opacity="0.35" shape-rendering="crispEdges"/>
</g>
<defs>
<filter id="filter0_d_546_6449" x="0" y="0" width="60" height="60" filterUnits="userSpaceOnUse" color-interpolation-filters="sRGB">
<feFlood flood-opacity="0" result="BackgroundImageFix"/>
<feColorMatrix in="SourceAlpha" type="matrix" values="0 0 0 0 0 0 0 0 0 0 0 0 0 0 0 0 0 0 127 0" result="hardAlpha"/>
<feOffset/>
<feGaussianBlur stdDeviation="2.5"/>
<feComposite in2="hardAlpha" operator="out"/>
<feColorMatrix type="matrix" values="0 0 0 0 0 0 0 0 0 0 0 0 0 0 0 0 0 0 0.15 0"/>
<feBlend mode="normal" in2="BackgroundImageFix" result="effect1_dropShadow_546_6449"/>
<feBlend mode="normal" in="SourceGraphic" in2="effect1_dropShadow_546_6449" result="shape"/>
</filter>
<clipPath id="clip0_546_6449">
<rect x="5" y="5" width="50" height="50" rx="25" fill="white"/>
</clipPath>
</defs>
</svg>
