<svg width="50" height="50" viewBox="0 0 50 50" fill="none" xmlns="http://www.w3.org/2000/svg">
<g clip-path="url(#clip0_546_6457)">
<path d="M21.2667 29.7999C21.1253 29.7999 20.9896 29.7437 20.8896 29.6437C20.7896 29.5437 20.7334 29.408 20.7334 29.2666V21.7999C20.7334 21.6585 20.7896 21.5228 20.8896 21.4228C20.9896 21.3228 21.1253 21.2666 21.2667 21.2666H23.9334C24.7821 21.2666 25.596 21.6037 26.1961 22.2039C26.7963 22.804 27.1334 23.6179 27.1334 24.4666V26.5999C27.1334 26.7414 27.0772 26.877 26.9772 26.9771C26.8772 27.0771 26.7415 27.1333 26.6001 27.1333C26.4586 27.1333 26.323 27.0771 26.2229 26.9771C26.1229 26.877 26.0667 26.7414 26.0667 26.5999V24.4666C26.0667 23.9008 25.842 23.3582 25.4419 22.9581C25.0418 22.558 24.4992 22.3333 23.9334 22.3333H21.8001V29.2666C21.8001 29.408 21.7439 29.5437 21.6439 29.6437C21.5438 29.7437 21.4082 29.7999 21.2667 29.7999Z" fill="black" fill-opacity="0.45"/>
<path d="M29.2666 29.7999H26.5999C25.7512 29.7999 24.9373 29.4628 24.3372 28.8627C23.737 28.2626 23.3999 27.4486 23.3999 26.5999V24.4666C23.3999 24.3252 23.4561 24.1895 23.5561 24.0895C23.6561 23.9895 23.7918 23.9333 23.9332 23.9333C24.0747 23.9333 24.2103 23.9895 24.3104 24.0895C24.4104 24.1895 24.4666 24.3252 24.4666 24.4666V26.5999C24.4666 27.1657 24.6913 27.7084 25.0914 28.1084C25.4915 28.5085 26.0341 28.7333 26.5999 28.7333H28.7332V21.7999C28.7332 21.6585 28.7894 21.5228 28.8894 21.4228C28.9895 21.3228 29.1251 21.2666 29.2666 21.2666C29.408 21.2666 29.5437 21.3228 29.6437 21.4228C29.7437 21.5228 29.7999 21.6585 29.7999 21.7999V29.2666C29.7999 29.408 29.7437 29.5437 29.6437 29.6437C29.5437 29.7437 29.408 29.7999 29.2666 29.7999Z" fill="black" fill-opacity="0.45"/>
<path d="M32.2667 29.7999C32.1253 29.7999 31.9896 29.7437 31.8896 29.6437C31.7896 29.5437 31.7334 29.408 31.7334 29.2666V21.7999C31.7334 21.6585 31.7896 21.5228 31.8896 21.4228C31.9896 21.3228 32.1253 21.2666 32.2667 21.2666H34.9334C35.7821 21.2666 36.596 21.6037 37.1961 22.2039C37.7963 22.804 38.1334 23.6179 38.1334 24.4666V26.5999C38.1334 26.7414 38.0772 26.877 37.9772 26.9771C37.8772 27.0771 37.7415 27.1333 37.6001 27.1333C37.4586 27.1333 37.323 27.0771 37.2229 26.9771C37.1229 26.877 37.0667 26.7414 37.0667 26.5999V24.4666C37.0667 23.9008 36.842 23.3582 36.4419 22.9581C36.0418 22.558 35.4992 22.3333 34.9334 22.3333H32.8001V29.2666C32.8001 29.408 32.7439 29.5437 32.6439 29.6437C32.5438 29.7437 32.4082 29.7999 32.2667 29.7999Z" fill="black" fill-opacity="0.45"/>
<path d="M40.2666 29.7999H37.5999C36.7512 29.7999 35.9373 29.4628 35.3372 28.8627C34.737 28.2626 34.3999 27.4486 34.3999 26.5999V24.4666C34.3999 24.3252 34.4561 24.1895 34.5561 24.0895C34.6561 23.9895 34.7918 23.9333 34.9332 23.9333C35.0747 23.9333 35.2103 23.9895 35.3104 24.0895C35.4104 24.1895 35.4666 24.3252 35.4666 24.4666V26.5999C35.4666 27.1657 35.6913 27.7084 36.0914 28.1084C36.4915 28.5085 37.0341 28.7333 37.5999 28.7333H39.7332V21.7999C39.7332 21.6585 39.7894 21.5228 39.8894 21.4228C39.9895 21.3228 40.1251 21.2666 40.2666 21.2666C40.408 21.2666 40.5437 21.3228 40.6437 21.4228C40.7437 21.5228 40.7999 21.6585 40.7999 21.7999V29.2666C40.7999 29.408 40.7437 29.5437 40.6437 29.6437C40.5437 29.7437 40.408 29.7999 40.2666 29.7999Z" fill="black" fill-opacity="0.45"/>
<path d="M10.2667 29.7999C10.1253 29.7999 9.98963 29.7437 9.88961 29.6437C9.78959 29.5437 9.7334 29.408 9.7334 29.2666V21.7999C9.7334 21.6585 9.78959 21.5228 9.88961 21.4228C9.98963 21.3228 10.1253 21.2666 10.2667 21.2666H12.9334C13.7821 21.2666 14.596 21.6037 15.1961 22.2039C15.7963 22.804 16.1334 23.6179 16.1334 24.4666V26.5999C16.1334 26.7414 16.0772 26.877 15.9772 26.9771C15.8772 27.0771 15.7415 27.1333 15.6001 27.1333C15.4586 27.1333 15.323 27.0771 15.2229 26.9771C15.1229 26.877 15.0667 26.7414 15.0667 26.5999V24.4666C15.0667 23.9008 14.842 23.3582 14.4419 22.9581C14.0418 22.558 13.4992 22.3333 12.9334 22.3333H10.8001V29.2666C10.8001 29.408 10.7439 29.5437 10.6439 29.6437C10.5438 29.7437 10.4082 29.7999 10.2667 29.7999Z" fill="black" fill-opacity="0.45"/>
<path d="M18.2666 29.7999H15.5999C14.7512 29.7999 13.9373 29.4628 13.3372 28.8627C12.737 28.2626 12.3999 27.4486 12.3999 26.5999V24.4666C12.3999 24.3252 12.4561 24.1895 12.5561 24.0895C12.6561 23.9895 12.7918 23.9333 12.9332 23.9333C13.0747 23.9333 13.2103 23.9895 13.3104 24.0895C13.4104 24.1895 13.4666 24.3252 13.4666 24.4666V26.5999C13.4666 27.1657 13.6913 27.7084 14.0914 28.1084C14.4915 28.5085 15.0341 28.7333 15.5999 28.7333H17.7332V21.7999C17.7332 21.6585 17.7894 21.5228 17.8894 21.4228C17.9895 21.3228 18.1251 21.2666 18.2666 21.2666C18.408 21.2666 18.5437 21.3228 18.6437 21.4228C18.7437 21.5228 18.7999 21.6585 18.7999 21.7999V29.2666C18.7999 29.408 18.7437 29.5437 18.6437 29.6437C18.5437 29.7437 18.408 29.7999 18.2666 29.7999Z" fill="black" fill-opacity="0.45"/>
</g>
<rect x="0.5" y="0.5" width="49" height="49" rx="24.5" stroke="black" stroke-opacity="0.35"/>
<defs>
<clipPath id="clip0_546_6457">
<rect width="50" height="50" rx="25" fill="white"/>
</clipPath>
</defs>
</svg>
