<svg width="50" height="50" viewBox="0 0 50 50" fill="none" xmlns="http://www.w3.org/2000/svg">
<path d="M20.3334 31.0002C20.1566 31.0002 19.987 30.9299 19.862 30.8049C19.737 30.6799 19.6667 30.5103 19.6667 30.3335V21.0002C19.6667 20.8234 19.737 20.6538 19.862 20.5288C19.987 20.4037 20.1566 20.3335 20.3334 20.3335H23.6667C24.7276 20.3335 25.745 20.7549 26.4952 21.5051C27.2453 22.2552 27.6667 23.2726 27.6667 24.3335V27.0002C27.6667 27.177 27.5965 27.3465 27.4715 27.4716C27.3465 27.5966 27.1769 27.6668 27.0001 27.6668C26.8233 27.6668 26.6537 27.5966 26.5287 27.4716C26.4037 27.3465 26.3334 27.177 26.3334 27.0002V24.3335C26.3334 23.6263 26.0525 22.948 25.5524 22.4479C25.0523 21.9478 24.374 21.6668 23.6667 21.6668H21.0001V30.3335C21.0001 30.5103 20.9298 30.6799 20.8048 30.8049C20.6798 30.9299 20.5102 31.0002 20.3334 31.0002Z" fill="black" fill-opacity="0.45"/>
<path d="M30.3333 31.0002H27C25.9391 31.0002 24.9217 30.5787 24.1716 29.8286C23.4214 29.0784 23 28.061 23 27.0002V24.3335C23 24.1567 23.0702 23.9871 23.1953 23.8621C23.3203 23.7371 23.4899 23.6668 23.6667 23.6668C23.8435 23.6668 24.013 23.7371 24.1381 23.8621C24.2631 23.9871 24.3333 24.1567 24.3333 24.3335V27.0002C24.3333 27.7074 24.6143 28.3857 25.1144 28.8858C25.6145 29.3859 26.2928 29.6668 27 29.6668H29.6667V21.0002C29.6667 20.8234 29.7369 20.6538 29.8619 20.5288C29.987 20.4037 30.1565 20.3335 30.3333 20.3335C30.5101 20.3335 30.6797 20.4037 30.8047 20.5288C30.9298 20.6538 31 20.8234 31 21.0002V30.3335C31 30.5103 30.9298 30.6799 30.8047 30.8049C30.6797 30.9299 30.5101 31.0002 30.3333 31.0002Z" fill="black" fill-opacity="0.45"/>
<rect x="0.5" y="0.5" width="49" height="49" rx="24.5" stroke="black" stroke-opacity="0.35"/>
</svg>
