<svg width="29" height="28" viewBox="0 0 29 28" fill="none" xmlns="http://www.w3.org/2000/svg">
<g clip-path="url(#clip0_546_6388)">
<path d="M26.1826 10.6152L18.4001 9.59773L15.0451 2.50273C14.8526 2.09023 14.2476 2.09023 14.0551 2.50273L10.7001 9.59773L2.91757 10.6152C2.45007 10.6702 2.28507 11.2202 2.61507 11.5502L8.30757 16.9402L6.87757 24.6677C6.79507 25.1077 7.26257 25.4652 7.67507 25.2452L14.5501 21.5052L21.4251 25.2452C21.8376 25.4652 22.3051 25.1077 22.2226 24.6677L20.7926 16.9402L26.4851 11.5502C26.8151 11.2202 26.6226 10.6702 26.1826 10.6152Z" fill="#34D186"/>
<path d="M298.9 -101.75V361.35H-191.7V-101.75H298.9ZM301.1 -103.95H-193.9V363.55H301.1V-103.95Z" fill="#0000FF"/>
</g>
<defs>
<clipPath id="clip0_546_6388">
<rect width="27.5" height="27.5" fill="white" transform="translate(0.800049)"/>
</clipPath>
</defs>
</svg>
