<svg width="57" height="47" viewBox="0 0 57 47" fill="none" xmlns="http://www.w3.org/2000/svg">
<path d="M30.8666 29.6C30.6721 29.6 30.4856 29.5228 30.3481 29.3852C30.2106 29.2477 30.1333 29.0612 30.1333 28.8667V18.6C30.1333 18.4055 30.2106 18.219 30.3481 18.0815C30.4856 17.944 30.6721 17.8667 30.8666 17.8667H34.5333C35.7003 17.8667 36.8194 18.3303 37.6446 19.1554C38.4697 19.9806 38.9333 21.0997 38.9333 22.2667V25.2C38.9333 25.3945 38.856 25.5811 38.7185 25.7186C38.581 25.8561 38.3945 25.9334 38.2 25.9334C38.0055 25.9334 37.8189 25.8561 37.6814 25.7186C37.5439 25.5811 37.4666 25.3945 37.4666 25.2V22.2667C37.4666 21.4887 37.1576 20.7426 36.6075 20.1925C36.0574 19.6424 35.3113 19.3334 34.5333 19.3334H31.6V28.8667C31.6 29.0612 31.5227 29.2477 31.3852 29.3852C31.2477 29.5228 31.0611 29.6 30.8666 29.6Z" fill="black" fill-opacity="0.4"/>
<path d="M41.8667 29.6H38.2C37.0331 29.6 35.9139 29.1365 35.0888 28.3113C34.2636 27.4861 33.8 26.367 33.8 25.2V22.2667C33.8 22.0722 33.8773 21.8857 34.0148 21.7482C34.1524 21.6106 34.3389 21.5334 34.5334 21.5334C34.7279 21.5334 34.9144 21.6106 35.0519 21.7482C35.1895 21.8857 35.2667 22.0722 35.2667 22.2667V25.2C35.2667 25.978 35.5758 26.7241 36.1259 27.2742C36.676 27.8243 37.4221 28.1334 38.2 28.1334H41.1334V18.6C41.1334 18.4055 41.2106 18.219 41.3482 18.0815C41.4857 17.944 41.6722 17.8667 41.8667 17.8667C42.0612 17.8667 42.2477 17.944 42.3853 18.0815C42.5228 18.219 42.6 18.4055 42.6 18.6V28.8667C42.6 29.0612 42.5228 29.2477 42.3853 29.3852C42.2477 29.5228 42.0612 29.6 41.8667 29.6Z" fill="black" fill-opacity="0.4"/>
<path d="M13.6179 30V19.092L11.5839 19.542V18.498L14.1219 17.4H15.1479V30H13.6179ZM22.7216 30.216C21.6056 30.216 20.6396 29.946 19.8236 29.406C19.0196 28.854 18.4016 28.092 17.9696 27.12C17.5376 26.136 17.3216 24.996 17.3216 23.7C17.3216 22.404 17.5376 21.27 17.9696 20.298C18.4016 19.314 19.0196 18.552 19.8236 18.012C20.6396 17.46 21.6056 17.184 22.7216 17.184C23.8376 17.184 24.7976 17.46 25.6016 18.012C26.4056 18.552 27.0236 19.314 27.4556 20.298C27.8876 21.27 28.1036 22.404 28.1036 23.7C28.1036 24.996 27.8876 26.136 27.4556 27.12C27.0236 28.092 26.4056 28.854 25.6016 29.406C24.7976 29.946 23.8376 30.216 22.7216 30.216ZM22.7216 28.884C23.4536 28.884 24.1076 28.68 24.6836 28.272C25.2716 27.852 25.7276 27.258 26.0516 26.49C26.3876 25.71 26.5556 24.78 26.5556 23.7C26.5556 22.62 26.3876 21.696 26.0516 20.928C25.7276 20.16 25.2716 19.572 24.6836 19.164C24.1076 18.744 23.4536 18.534 22.7216 18.534C21.9776 18.534 21.3176 18.744 20.7416 19.164C20.1656 19.572 19.7096 20.16 19.3736 20.928C19.0376 21.696 18.8696 22.62 18.8696 23.7C18.8696 24.78 19.0376 25.71 19.3736 26.49C19.7096 27.258 20.1656 27.852 20.7416 28.272C21.3176 28.68 21.9776 28.884 22.7216 28.884Z" fill="black" fill-opacity="0.4"/>
<rect x="0.5" y="0.5" width="56" height="46" rx="7.5" stroke="black" stroke-opacity="0.35"/>
</svg>
