<svg width="48" height="48" viewBox="0 0 48 48" fill="none" xmlns="http://www.w3.org/2000/svg">
<path d="M16.06 30.4C15.9573 30.4 15.878 30.3673 15.822 30.302C15.766 30.246 15.738 30.1713 15.738 30.078V29.098C15.0567 29.042 14.4827 28.888 14.016 28.636C13.5493 28.3747 13.1947 28.062 12.952 27.698C12.7093 27.334 12.5787 26.9467 12.56 26.536C12.56 26.4613 12.588 26.396 12.644 26.34C12.7093 26.2747 12.784 26.242 12.868 26.242H13.582C13.694 26.242 13.778 26.27 13.834 26.326C13.89 26.382 13.9273 26.4473 13.946 26.522C14.002 26.746 14.1187 26.97 14.296 27.194C14.4733 27.4087 14.7253 27.5907 15.052 27.74C15.388 27.88 15.8173 27.95 16.34 27.95C17.1427 27.95 17.7307 27.81 18.104 27.53C18.4867 27.2407 18.678 26.858 18.678 26.382C18.678 26.0553 18.5753 25.794 18.37 25.598C18.174 25.3927 17.8707 25.2107 17.46 25.052C17.0493 24.8933 16.5173 24.7207 15.864 24.534C15.1827 24.338 14.618 24.1233 14.17 23.89C13.722 23.6567 13.386 23.3673 13.162 23.022C12.9473 22.6767 12.84 22.238 12.84 21.706C12.84 21.0247 13.092 20.4413 13.596 19.956C14.1 19.4613 14.814 19.172 15.738 19.088V18.122C15.738 18.0287 15.766 17.954 15.822 17.898C15.878 17.8327 15.9573 17.8 16.06 17.8H16.592C16.6853 17.8 16.76 17.8327 16.816 17.898C16.8813 17.954 16.914 18.0287 16.914 18.122V19.102C17.5393 19.1767 18.062 19.3493 18.482 19.62C18.902 19.8907 19.2193 20.2033 19.434 20.558C19.6487 20.9127 19.7607 21.258 19.77 21.594C19.77 21.6593 19.7467 21.7247 19.7 21.79C19.6533 21.846 19.5787 21.874 19.476 21.874H18.734C18.6687 21.874 18.5987 21.8553 18.524 21.818C18.4587 21.7807 18.4073 21.7107 18.37 21.608C18.314 21.2253 18.0993 20.9033 17.726 20.642C17.3527 20.3807 16.8673 20.25 16.27 20.25C15.6633 20.25 15.1687 20.3667 14.786 20.6C14.4127 20.8333 14.226 21.1973 14.226 21.692C14.226 22.0093 14.3147 22.2753 14.492 22.49C14.6693 22.6953 14.9493 22.8773 15.332 23.036C15.7147 23.1947 16.214 23.3627 16.83 23.54C17.5767 23.7453 18.188 23.9647 18.664 24.198C19.14 24.422 19.49 24.7067 19.714 25.052C19.9473 25.388 20.064 25.822 20.064 26.354C20.064 26.886 19.9333 27.348 19.672 27.74C19.42 28.132 19.056 28.4447 18.58 28.678C18.1133 28.9113 17.558 29.056 16.914 29.112V30.078C16.914 30.1713 16.8813 30.246 16.816 30.302C16.76 30.3673 16.6853 30.4 16.592 30.4H16.06ZM24.5183 29C24.425 29 24.3456 28.972 24.2803 28.916C24.2243 28.8507 24.1963 28.7713 24.1963 28.678V20.838L21.8723 22.63C21.7976 22.686 21.7183 22.7093 21.6343 22.7C21.5503 22.6907 21.4803 22.6487 21.4243 22.574L21.0603 22.112C21.0043 22.028 20.981 21.944 20.9903 21.86C21.009 21.776 21.0556 21.706 21.1303 21.65L24.1823 19.298C24.2476 19.2513 24.3083 19.2233 24.3643 19.214C24.4203 19.2047 24.481 19.2 24.5463 19.2H25.2603C25.3536 19.2 25.4283 19.2327 25.4843 19.298C25.5403 19.354 25.5683 19.4287 25.5683 19.522V28.678C25.5683 28.7713 25.5403 28.8507 25.4843 28.916C25.4283 28.972 25.3536 29 25.2603 29H24.5183ZM31.0806 29.14C30.4366 29.14 29.8906 29.042 29.4426 28.846C29.0039 28.6407 28.6446 28.3607 28.3646 28.006C28.0846 27.6513 27.8792 27.2453 27.7486 26.788C27.6272 26.3307 27.5572 25.8453 27.5386 25.332C27.5292 25.08 27.5199 24.814 27.5106 24.534C27.5106 24.254 27.5106 23.974 27.5106 23.694C27.5199 23.4047 27.5292 23.1293 27.5386 22.868C27.5479 22.3547 27.6179 21.8693 27.7486 21.412C27.8886 20.9453 28.0939 20.5393 28.3646 20.194C28.6446 19.8393 29.0086 19.564 29.4566 19.368C29.9046 19.1627 30.4459 19.06 31.0806 19.06C31.7246 19.06 32.2659 19.1627 32.7046 19.368C33.1526 19.564 33.5166 19.8393 33.7966 20.194C34.0766 20.5393 34.2819 20.9453 34.4126 21.412C34.5526 21.8693 34.6272 22.3547 34.6366 22.868C34.6459 23.1293 34.6506 23.4047 34.6506 23.694C34.6599 23.974 34.6599 24.254 34.6506 24.534C34.6506 24.814 34.6459 25.08 34.6366 25.332C34.6272 25.8453 34.5526 26.3307 34.4126 26.788C34.2819 27.2453 34.0766 27.6513 33.7966 28.006C33.5259 28.3607 33.1666 28.6407 32.7186 28.846C32.2799 29.042 31.7339 29.14 31.0806 29.14ZM31.0806 27.95C31.8086 27.95 32.3452 27.712 32.6906 27.236C33.0452 26.7507 33.2272 26.0927 33.2366 25.262C33.2552 24.9913 33.2646 24.73 33.2646 24.478C33.2646 24.2167 33.2646 23.96 33.2646 23.708C33.2646 23.4467 33.2552 23.19 33.2366 22.938C33.2272 22.126 33.0452 21.4773 32.6906 20.992C32.3452 20.4973 31.8086 20.25 31.0806 20.25C30.3619 20.25 29.8252 20.4973 29.4706 20.992C29.1252 21.4773 28.9432 22.126 28.9246 22.938C28.9246 23.19 28.9199 23.4467 28.9106 23.708C28.9106 23.96 28.9106 24.2167 28.9106 24.478C28.9199 24.73 28.9246 24.9913 28.9246 25.262C28.9432 26.0927 29.1299 26.7507 29.4846 27.236C29.8392 27.712 30.3712 27.95 31.0806 27.95Z" fill="#6F7883"/>
<circle cx="24" cy="24" r="23.5" stroke="#8392A5"/>
</svg>
