<svg width="18" height="26" viewBox="0 0 18 26" fill="none" xmlns="http://www.w3.org/2000/svg">
<path d="M8.99992 3.49805C7.93097 3.49805 6.88602 3.81503 5.99723 4.4089C5.10843 5.00278 4.41569 5.84688 4.00663 6.83446C3.59756 7.82204 3.49053 8.90874 3.69907 9.95715C3.90761 11.0056 4.42236 11.9686 5.17822 12.7244C5.93408 13.4803 6.8971 13.9951 7.94551 14.2036C8.99392 14.4121 10.0806 14.3051 11.0682 13.896C12.0558 13.487 12.8999 12.7942 13.4938 11.9054C14.0876 11.0166 14.4046 9.97169 14.4046 8.90275C14.403 7.46983 13.833 6.09607 12.8198 5.08284C11.8066 4.06962 10.4328 3.49967 8.99992 3.49805ZM8.99992 13.4949C8.09167 13.4949 7.20381 13.2256 6.44863 12.721C5.69344 12.2164 5.10485 11.4992 4.75728 10.6601C4.4097 9.82099 4.31876 8.89765 4.49596 8.00685C4.67315 7.11605 5.11051 6.2978 5.75274 5.65557C6.39497 5.01334 7.21322 4.57598 8.10402 4.39878C8.99482 4.22159 9.91816 4.31253 10.7573 4.66011C11.5964 5.00768 12.3136 5.59627 12.8182 6.35146C13.3228 7.10664 13.5921 7.9945 13.5921 8.90275C13.5907 10.1203 13.1065 11.2875 12.2456 12.1484C11.3847 13.0093 10.2174 13.4936 8.99992 13.4949Z" fill="#34D186"/>
<path d="M17.1321 8.67918L16.037 7.01823L16.1465 5.02867C16.1509 4.94983 16.1321 4.87144 16.0926 4.80307C16.0531 4.73471 15.9945 4.67935 15.924 4.64375L14.1535 3.74929L13.259 1.97875C13.2235 1.90821 13.1682 1.84958 13.0998 1.81006C13.0314 1.77054 12.953 1.75185 12.8741 1.75627L10.8845 1.86576L9.22341 0.770711C9.15703 0.726943 9.07928 0.703613 8.99977 0.703613C8.92026 0.703613 8.8425 0.726943 8.77613 0.770711L7.11543 1.86576L5.12582 1.75627C5.04698 1.75194 4.96859 1.77067 4.90023 1.81018C4.83186 1.84969 4.7765 1.90827 4.7409 1.97875L3.84649 3.74929L2.0759 4.64375C2.00542 4.67935 1.94684 4.73471 1.90733 4.80307C1.86782 4.87144 1.84909 4.94983 1.85343 5.02867L1.96296 7.01823L0.867863 8.67918C0.824105 8.74555 0.800781 8.8233 0.800781 8.9028C0.800781 8.98229 0.824105 9.06004 0.867863 9.12641L1.96296 10.7874L1.85343 12.7769C1.84909 12.8558 1.86782 12.9342 1.90733 13.0025C1.94684 13.0709 2.00542 13.1262 2.0759 13.1618L3.84649 14.0563L4.7409 15.8268C4.77422 15.8923 4.82472 15.9475 4.887 15.9865L1.53579 22.224C1.49635 22.2974 1.48043 22.3811 1.49018 22.4638C1.49994 22.5466 1.53491 22.6243 1.59034 22.6865C1.64577 22.7487 1.71899 22.7924 1.80007 22.8116C1.88115 22.8308 1.96617 22.8246 2.0436 22.7938L5.36556 21.4752L6.09996 24.9731C6.11708 25.0546 6.15886 25.1289 6.21961 25.1858C6.28037 25.2428 6.35718 25.2798 6.43963 25.2916C6.52208 25.3035 6.60618 25.2897 6.68055 25.2522C6.75491 25.2147 6.81595 25.1552 6.85538 25.0818L9.00033 21.0895L11.1445 25.0818C11.1839 25.1552 11.245 25.2147 11.3193 25.2522C11.3937 25.2898 11.4778 25.3035 11.5603 25.2917C11.6427 25.2798 11.7196 25.2429 11.7803 25.1859C11.8411 25.1289 11.8829 25.0546 11.9 24.9731L12.6344 21.4752L15.9564 22.7936C16.0339 22.8244 16.1189 22.8306 16.2 22.8114C16.2811 22.7922 16.3543 22.7485 16.4097 22.6863C16.4651 22.6241 16.5001 22.5464 16.5099 22.4636C16.5196 22.3809 16.5037 22.2972 16.4643 22.2238L13.1133 15.9866C13.1755 15.9475 13.226 15.8923 13.2593 15.8268L14.1537 14.0563L15.9243 13.1618C15.9948 13.1262 16.0534 13.0709 16.0929 13.0025C16.1324 12.9342 16.1511 12.8558 16.1468 12.7769L16.0372 10.7874L17.1323 9.12641C17.1761 9.06002 17.1993 8.98225 17.1993 8.90276C17.1992 8.82326 17.1759 8.74553 17.1321 8.67918ZM6.66642 23.717L6.06162 20.8364C6.04945 20.7784 6.02477 20.7239 5.9893 20.6765C5.95383 20.6291 5.90843 20.59 5.85628 20.562C5.80413 20.534 5.74649 20.5177 5.68739 20.5143C5.62829 20.5109 5.56916 20.5204 5.51414 20.5423L2.77825 21.6281L5.79537 16.0125L6.25977 15.9871L8.53923 20.2314L6.66642 23.717ZM12.486 20.5422C12.4309 20.5204 12.3718 20.5108 12.3127 20.5142C12.2536 20.5177 12.196 20.5339 12.1438 20.562C12.0916 20.59 12.0463 20.629 12.0108 20.6764C11.9753 20.7238 11.9506 20.7784 11.9385 20.8364L11.3337 23.7168L7.17936 15.982L8.77654 17.0349C8.84291 17.0786 8.92067 17.102 9.00018 17.102C9.07968 17.102 9.15744 17.0786 9.22382 17.0349L10.8845 15.94L12.2048 16.0127L15.2217 21.6281L12.486 20.5422ZM15.285 10.452C15.237 10.5247 15.2137 10.611 15.2185 10.6979L15.3208 12.5565L13.668 13.3914C13.5906 13.4305 13.5277 13.4934 13.4886 13.5708L12.6537 15.2236L10.7951 15.1213C10.7082 15.1165 10.6219 15.1398 10.5492 15.1878L8.99997 16.2092L7.45069 15.1877C7.38437 15.144 7.30669 15.1207 7.22725 15.1206C7.21984 15.1206 7.21237 15.1206 7.20496 15.1212L5.34636 15.2235L4.51147 13.5708C4.47236 13.4933 4.40949 13.4305 4.33206 13.3913L2.67928 12.5565L2.78161 10.6979C2.78639 10.6109 2.76309 10.5247 2.71513 10.452L1.69362 8.90262L2.71513 7.35338C2.76307 7.28063 2.78637 7.1944 2.78161 7.1074L2.67928 5.24906L4.33206 4.41416C4.40949 4.37504 4.47236 4.31215 4.51147 4.2347L5.34636 2.58198L7.20496 2.68425C7.29195 2.68908 7.37818 2.66577 7.45089 2.61778L8.99997 1.59647L10.5493 2.61793C10.6219 2.66598 10.7082 2.6893 10.7952 2.6844L12.6538 2.58213L13.4885 4.23496C13.5276 4.3124 13.5905 4.37529 13.6679 4.41442L15.3207 5.24931L15.2183 7.10765C15.2136 7.19465 15.2369 7.28088 15.2848 7.35364L16.3063 8.90287L15.285 10.452Z" fill="#34D186"/>
<path d="M11.9314 7.85552L10.1579 7.59791L9.36462 5.99063C9.33108 5.92265 9.27918 5.86541 9.2148 5.82539C9.15042 5.78537 9.07613 5.76416 9.00032 5.76416C8.92451 5.76416 8.85022 5.78537 8.78584 5.82539C8.72146 5.86541 8.66956 5.92265 8.63601 5.99063L7.84276 7.59791L6.06877 7.85552C5.99375 7.86642 5.92328 7.8981 5.86533 7.94696C5.80737 7.99583 5.76424 8.05993 5.74082 8.13203C5.7174 8.20413 5.71462 8.28134 5.73279 8.35493C5.75097 8.42853 5.78937 8.49557 5.84366 8.54848L7.1271 9.79958L6.82414 11.5661C6.81132 11.6408 6.81966 11.7176 6.84821 11.7879C6.87677 11.8581 6.92441 11.9189 6.98574 11.9635C7.04707 12.008 7.11965 12.0346 7.19526 12.04C7.27088 12.0455 7.34651 12.0297 7.41361 11.9944L9.00007 11.1604L10.5865 11.9945C10.6536 12.0298 10.7293 12.0456 10.8049 12.0401C10.8805 12.0347 10.9531 12.0081 11.0144 11.9636C11.0757 11.919 11.1234 11.8582 11.1519 11.788C11.1805 11.7177 11.1888 11.6409 11.176 11.5662L10.873 9.79968L12.1565 8.54858C12.2108 8.49567 12.2492 8.42863 12.2673 8.35504C12.2855 8.28144 12.2827 8.20423 12.2593 8.13213C12.2359 8.06004 12.1928 7.99593 12.1348 7.94706C12.0769 7.8982 12.0064 7.86652 11.9314 7.85562V7.85552ZM10.1528 9.36692C10.1056 9.4129 10.0704 9.46966 10.05 9.5323C10.0297 9.59494 10.0249 9.66159 10.036 9.72651L10.2359 10.8923L9.18902 10.3419C9.13072 10.3112 9.06584 10.2952 8.99996 10.2952C8.93409 10.2952 8.86921 10.3112 8.8109 10.3419L7.7641 10.8922L7.96403 9.72645C7.97517 9.66154 7.97035 9.59489 7.95001 9.53225C7.92966 9.46961 7.89439 9.41285 7.84723 9.36687L7.0002 8.54127L8.17071 8.3712C8.2359 8.36173 8.2978 8.33655 8.3511 8.29783C8.40439 8.25911 8.44746 8.20801 8.47661 8.14893L9.00007 7.08837L9.52352 8.14899C9.55267 8.20806 9.59574 8.25916 9.64903 8.29788C9.70233 8.3366 9.76424 8.36178 9.82942 8.37125L10.9999 8.54132L10.1528 9.36692Z" fill="#34D186"/>
</svg>
