<svg width="57" height="44" viewBox="0 0 57 44" fill="none" xmlns="http://www.w3.org/2000/svg">
<circle cx="31" cy="22" r="22" fill="#EBF2EF"/>
<path d="M47.2388 35.0002H47.3322C47.3427 34.9883 47.3528 34.9761 47.3627 34.964C47.5756 34.7047 47.7199 34.3959 47.7821 34.0659C47.8576 33.6542 47.7989 33.229 47.6144 32.8533C47.563 32.748 47.5024 32.6474 47.4333 32.5527C47.4087 32.558 47.3846 32.5639 47.3607 32.5712C47.5425 32.8125 47.6647 33.0935 47.7175 33.3912C47.7645 33.6701 47.7489 33.9561 47.6717 34.2282C47.5944 34.5003 47.4576 34.7517 47.2711 34.964C47.2606 34.9761 47.2498 34.9883 47.2388 35.0002Z" fill="white"/>
<path d="M27.7927 24.5623H21.2306L21.161 22.5401C21.158 22.4524 21.174 22.3652 21.2078 22.2843C21.2417 22.2034 21.2927 22.1308 21.3572 22.0716C21.4217 22.0123 21.4983 21.9678 21.5816 21.941C21.665 21.9143 21.7531 21.9059 21.84 21.9166L25.6587 22.3853H25.6592C26.2253 22.3868 26.7677 22.6132 27.1677 23.0148C27.5676 23.4165 27.7923 23.9606 27.7927 24.5281V24.5623Z" fill="#34D186"/>
<path d="M24.868 17.3892H20.2912C20.2304 17.3891 20.1701 17.4011 20.1138 17.4245C20.0576 17.4478 20.0065 17.482 19.9635 17.5252C19.9204 17.5683 19.8863 17.6195 19.863 17.6759C19.8397 17.7323 19.8277 17.7927 19.8278 17.8537V22.4409C19.8277 22.5019 19.8397 22.5623 19.863 22.6187C19.8863 22.6751 19.9204 22.7263 19.9635 22.7694C20.0065 22.8126 20.0576 22.8468 20.1138 22.8701C20.1701 22.8935 20.2304 22.9055 20.2912 22.9054H24.868C24.9289 22.9055 24.9891 22.8935 25.0454 22.8701C25.1016 22.8468 25.1527 22.8126 25.1958 22.7694C25.2388 22.7263 25.2729 22.6751 25.2962 22.6187C25.3195 22.5623 25.3315 22.5019 25.3315 22.4409V17.8537C25.3315 17.7927 25.3195 17.7323 25.2962 17.6759C25.2729 17.6195 25.2388 17.5683 25.1958 17.5252C25.1527 17.482 25.1016 17.4478 25.0454 17.4245C24.9891 17.4011 24.9289 17.3891 24.868 17.3892V17.3892Z" fill="#CCCCCC"/>
<path d="M23.8372 20.8192L21.6763 21.241C21.5481 21.2658 21.4153 21.2387 21.3071 21.1656C21.1988 21.0924 21.1239 20.9793 21.0988 20.8508L20.9327 19.9959C20.9079 19.8674 20.9349 19.7343 21.0079 19.6258C21.0809 19.5173 21.1938 19.4423 21.3219 19.4171L23.4828 18.9953C23.611 18.9705 23.7438 18.9976 23.852 19.0707C23.9603 19.1438 24.0352 19.257 24.0603 19.3855L24.2264 20.2404C24.2512 20.3689 24.2242 20.5019 24.1512 20.6105C24.0782 20.719 23.9653 20.794 23.8372 20.8192Z" fill="#34D186"/>
<path d="M23.4049 19.8092L21.7558 20.1311C21.7257 20.137 21.6944 20.1306 21.6689 20.1134C21.6434 20.0962 21.6258 20.0695 21.6199 20.0393C21.6141 20.0091 21.6204 19.9777 21.6376 19.9522C21.6548 19.9267 21.6814 19.909 21.7115 19.9031L23.3606 19.5812C23.3908 19.5754 23.422 19.5817 23.4475 19.5989C23.473 19.6161 23.4906 19.6428 23.4965 19.673C23.5024 19.7033 23.496 19.7346 23.4789 19.7601C23.4617 19.7857 23.4351 19.8033 23.4049 19.8092V19.8092Z" fill="white"/>
<path d="M23.0844 20.2858L22.2314 20.4523C22.2012 20.4582 22.17 20.4518 22.1445 20.4346C22.119 20.4174 22.1014 20.3907 22.0955 20.3605C22.0896 20.3302 22.096 20.2989 22.1132 20.2734C22.1303 20.2478 22.1569 20.2302 22.1871 20.2243L23.0401 20.0578C23.055 20.0549 23.0704 20.055 23.0853 20.058C23.1002 20.061 23.1144 20.067 23.127 20.0755C23.1396 20.084 23.1504 20.0949 23.1588 20.1077C23.1672 20.1204 23.1731 20.1346 23.176 20.1496C23.1789 20.1646 23.1788 20.18 23.1758 20.1949C23.1728 20.2099 23.1668 20.2241 23.1583 20.2367C23.1498 20.2493 23.1389 20.2602 23.1262 20.2686C23.1135 20.277 23.0993 20.2829 23.0844 20.2858Z" fill="white"/>
<path d="M25.3315 17.8537V18.4634H19.8278V17.8537C19.8277 17.7927 19.8397 17.7323 19.863 17.6759C19.8863 17.6195 19.9204 17.5683 19.9635 17.5252C20.0065 17.482 20.0576 17.4478 20.1138 17.4245C20.1701 17.4011 20.2304 17.3891 20.2912 17.3892H24.868C24.9289 17.3891 24.9891 17.4011 25.0454 17.4245C25.1016 17.4478 25.1527 17.482 25.1958 17.5252C25.2388 17.5683 25.2729 17.6195 25.2962 17.6759C25.3195 17.7323 25.3315 17.7927 25.3315 17.8537Z" fill="#B3B3B3"/>
<path d="M36.3219 18.654C36.2901 18.5512 36.2362 18.4567 36.164 18.377C36.0919 18.2973 36.0031 18.2345 35.9041 18.1929C35.805 18.1513 35.6981 18.132 35.5908 18.1363C35.4835 18.1406 35.3785 18.1685 35.2831 18.2179L28.9866 15.9536L28.7092 17.5302L34.9857 19.2601C35.0792 19.4153 35.2261 19.5306 35.3988 19.5844C35.5714 19.6382 35.7577 19.6266 35.9224 19.5519C36.0871 19.4772 36.2187 19.3445 36.2924 19.179C36.366 19.0136 36.3765 18.8267 36.3219 18.654V18.654Z" fill="#FFB8B8"/>
<path opacity="0.2" d="M36.3219 18.654C36.2901 18.5512 36.2362 18.4567 36.164 18.377C36.0919 18.2973 36.0031 18.2345 35.9041 18.1929C35.805 18.1513 35.6981 18.132 35.5908 18.1363C35.4835 18.1406 35.3785 18.1685 35.2831 18.2179L28.9866 15.9536L28.7092 17.5302L34.9857 19.2601C35.0792 19.4153 35.2261 19.5306 35.3988 19.5844C35.5714 19.6382 35.7577 19.6266 35.9224 19.5519C36.0871 19.4772 36.2187 19.3445 36.2924 19.179C36.366 19.0136 36.3765 18.8267 36.3219 18.654V18.654Z" fill="black"/>
<path d="M30.1041 16.2409L29.5096 17.7978C29.4926 17.8421 29.4664 17.8822 29.4326 17.9154C29.3988 17.9486 29.3583 17.9742 29.3138 17.9903C29.2693 18.0064 29.2218 18.0127 29.1747 18.0087C29.1275 18.0048 29.0817 17.9907 29.0405 17.9674L27.5954 17.1522C27.3698 17.0642 27.1882 16.8901 27.0905 16.668C26.9928 16.446 26.9869 16.1942 27.0741 15.9678C27.1613 15.7414 27.3345 15.559 27.5558 15.4604C27.777 15.3618 28.0282 15.3552 28.2543 15.442L29.868 15.8007C29.9142 15.8109 29.9576 15.8311 29.9954 15.8597C30.0331 15.8883 30.0642 15.9248 30.0866 15.9666C30.109 16.0083 30.1222 16.0545 30.1252 16.1018C30.1283 16.1491 30.1211 16.1966 30.1041 16.2409V16.2409Z" fill="#34D186"/>
<path d="M36.8175 20.0957L34.5613 21.1236L34.8575 22.2413C35.4295 24.3997 35.5813 26.6483 35.3046 28.8643V28.8643L36.9542 29.2096L38.3216 25.7148L37.843 21.7403L36.8175 20.0957Z" fill="#34D186"/>
<path d="M41.2443 25.2695C39.7619 25.2695 38.5539 26.3496 38.4952 27.7022H43.9933C43.9347 26.3496 42.7267 25.2695 41.2443 25.2695Z" fill="#3F3D56"/>
<path d="M40.0903 25.5027C40.0132 19.3972 36.5439 19.9589 36.5439 19.9589C36.5439 19.9589 36.6088 21.8593 36.64 21.9184C38.8507 26.1108 35.2022 31.0257 30.5579 30.1215C30.4703 30.1044 30.3862 30.0871 30.3055 30.0696C29.717 29.9465 29.1975 29.6033 28.8525 29.1098C28.5075 28.6164 28.363 28.0098 28.4484 27.4134C28.9059 23.7311 26.6304 23.7963 26.6304 23.7963H23.3031L21.5752 22.2376C21.5142 22.1826 21.4407 22.1434 21.3611 22.1234C21.2815 22.1035 21.1982 22.1034 21.1186 22.1231C21.0389 22.1429 20.9653 22.1819 20.9042 22.2367C20.843 22.2916 20.7962 22.3606 20.7678 22.4378L20.5455 23.0425C20.5455 23.0425 17.2638 23.3851 17.5373 26.6058H18.5519C18.5494 26.6973 18.5531 26.7889 18.5628 26.8799L26.1348 26.8182C26.5786 26.8146 26.9704 27.1751 26.9722 27.62C26.9727 27.7283 26.9514 27.8355 26.9095 27.9354C26.8676 28.0352 26.8061 28.1256 26.7286 28.2011C26.6511 28.2765 26.5591 28.3355 26.4584 28.3746C26.3576 28.4136 26.2499 28.4319 26.1419 28.4283L24.9212 28.3875C24.5451 30.0664 25.4681 31.197 26.4851 31.908C27.4426 32.5676 28.5788 32.9174 29.7407 32.9102H33.0571C37.3644 32.9102 38.1164 29.2783 38.1164 29.2783C40.3726 28.319 40.0903 25.5027 40.0903 25.5027Z" fill="#3F3D56"/>
<path d="M41.0392 34.8971C43.1632 34.8971 44.885 33.1713 44.885 31.0425C44.885 28.9137 43.1632 27.188 41.0392 27.188C38.9153 27.188 37.1935 28.9137 37.1935 31.0425C37.1935 33.1713 38.9153 34.8971 41.0392 34.8971Z" fill="#3F3D56"/>
<path d="M41.0393 31.9876C41.5598 31.9876 41.9819 31.5647 41.9819 31.0429C41.9819 30.5211 41.5598 30.0981 41.0393 30.0981C40.5187 30.0981 40.0967 30.5211 40.0967 31.0429C40.0967 31.5647 40.5187 31.9876 41.0393 31.9876Z" fill="white"/>
<path d="M21.6225 34.897C24.0674 34.897 26.0494 32.9105 26.0494 30.46C26.0494 28.0095 24.0674 26.0229 21.6225 26.0229C19.1775 26.0229 17.1956 28.0095 17.1956 30.46C17.1956 32.9105 19.1775 34.897 21.6225 34.897Z" fill="#3F3D56"/>
<path d="M21.6224 31.5476C22.2216 31.5476 22.7074 31.0607 22.7074 30.4601C22.7074 29.8595 22.2216 29.3726 21.6224 29.3726C21.0231 29.3726 20.5374 29.8595 20.5374 30.4601C20.5374 31.0607 21.0231 31.5476 21.6224 31.5476Z" fill="white"/>
<path d="M34.5677 21.4275L33.7559 19.2176C33.7136 19.1024 33.6943 18.98 33.6992 18.8573C33.7041 18.7347 33.7331 18.6142 33.7844 18.5028C33.8357 18.3914 33.9085 18.2912 33.9985 18.2079C34.0884 18.1247 34.1939 18.06 34.3088 18.0176L36.6361 17.1589C36.8383 17.0843 37.0532 17.0503 37.2684 17.0589C37.4837 17.0675 37.6952 17.1186 37.8908 17.2091C38.0865 17.2996 38.2624 17.4279 38.4085 17.5865C38.5547 17.7452 38.6682 17.9312 38.7427 18.1338C38.8098 18.3157 38.8441 18.5081 38.8439 18.7021C38.8431 18.9483 38.7875 19.1913 38.6812 19.4133C38.5749 19.6353 38.4206 19.8308 38.2294 19.9856C38.0914 20.0966 37.9362 20.1843 37.77 20.2452L34.5677 21.4275Z" fill="#3F3D56"/>
<path d="M38.8097 18.7019C38.8095 18.9432 38.7553 19.1813 38.6512 19.3988C38.5471 19.6163 38.3957 19.8076 38.208 19.9587C37.9201 19.8826 37.6523 19.7445 37.423 19.5542C37.1937 19.3638 37.0086 19.1257 36.8804 18.8564C36.7522 18.5871 36.6841 18.293 36.6808 17.9946C36.6775 17.6962 36.739 17.4007 36.8612 17.1286C37.0957 17.0775 37.3386 17.0796 37.5722 17.135C37.8057 17.1903 38.024 17.2973 38.2108 17.4482C38.3977 17.5991 38.5485 17.79 38.6521 18.007C38.7558 18.2239 38.8096 18.4614 38.8097 18.7019V18.7019Z" fill="#34D186"/>
<path d="M18.1185 27.051C18.6472 27.051 19.0757 26.5295 19.0757 25.8861C19.0757 25.2427 18.6472 24.7212 18.1185 24.7212C17.5899 24.7212 17.1614 25.2427 17.1614 25.8861C17.1614 26.5295 17.5899 27.051 18.1185 27.051Z" fill="#34D186"/>
<path d="M30.771 30.01H31.6092L32.008 27.8311L30.7709 27.8311L30.771 30.01Z" fill="#FFB8B8"/>
<path d="M30.5571 29.7354L32.2078 29.7354H32.2079C32.346 29.7353 32.4828 29.7626 32.6105 29.8156C32.7381 29.8686 32.8541 29.9462 32.9517 30.0442C33.0494 30.1421 33.1269 30.2583 33.1798 30.3862C33.2326 30.5141 33.2599 30.6512 33.2598 30.7897V30.824L30.5572 30.8241L30.5571 29.7354Z" fill="#34D186"/>
<path d="M31.7439 29.1155C31.7341 29.1155 31.7243 29.115 31.7145 29.1141L30.5545 29.0294C30.5076 29.025 30.4623 29.0099 30.4221 28.9853C30.3819 28.9606 30.348 28.927 30.3228 28.8871C30.2976 28.8471 30.282 28.802 30.277 28.755C30.272 28.7081 30.2778 28.6606 30.294 28.6162L31.8465 25.1205C31.8576 25.0893 31.8621 25.0562 31.8598 25.0232C31.8575 24.9901 31.8484 24.958 31.833 24.9287C31.8178 24.899 31.7964 24.8729 31.7703 24.8522C31.7443 24.8314 31.7141 24.8163 31.6819 24.8081C30.9519 24.6168 29.0789 24.1076 27.4576 23.5117C26.763 23.2564 26.3255 22.8875 26.1573 22.4152C25.9356 21.7925 26.2636 21.2246 26.2776 21.2008L26.2887 21.1821L27.8143 21.3211L29.4682 21.4621L33.0927 23.4101C33.3964 23.5747 33.6271 23.848 33.7388 24.1754C33.8506 24.5029 33.8351 24.8605 33.6956 25.177L32.0246 28.9327C32.0004 28.9871 31.9611 29.0333 31.9112 29.0657C31.8614 29.0982 31.8033 29.1154 31.7439 29.1155Z" fill="#2F2E41"/>
<path d="M28.0796 14.4047C29.007 14.4047 29.7588 13.6511 29.7588 12.7216C29.7588 11.7921 29.007 11.0386 28.0796 11.0386C27.1522 11.0386 26.4004 11.7921 26.4004 12.7216C26.4004 13.6511 27.1522 14.4047 28.0796 14.4047Z" fill="#FFB8B8"/>
<path d="M30.2924 30.2155H31.1306L31.5294 28.0366L30.2922 28.0367L30.2924 30.2155Z" fill="#FFB8B8"/>
<path d="M30.0786 29.941L31.7293 29.9409H31.7294C31.8675 29.9409 32.0043 29.9682 32.1319 30.0212C32.2596 30.0742 32.3755 30.1518 32.4732 30.2497C32.5709 30.3476 32.6484 30.4639 32.7013 30.5918C32.7541 30.7197 32.7813 30.8568 32.7813 30.9953V31.0295L30.0787 31.0296L30.0786 29.941Z" fill="#34D186"/>
<path d="M31.2654 29.321C31.2556 29.321 31.2458 29.3206 31.2359 29.3196L30.076 29.235C30.029 29.2306 29.9838 29.2155 29.9436 29.1908C29.9034 29.1662 29.8695 29.1326 29.8443 29.0926C29.8191 29.0527 29.8034 29.0075 29.7985 28.9606C29.7935 28.9136 29.7993 28.8662 29.8155 28.8218L31.3679 25.326C31.379 25.2949 31.3836 25.2617 31.3813 25.2287C31.3789 25.1957 31.3698 25.1635 31.3545 25.1342C31.3392 25.1046 31.3179 25.0785 31.2918 25.0577C31.2658 25.0369 31.2356 25.0219 31.2034 25.0136C30.4734 24.8224 28.6004 24.3131 26.9791 23.7173C26.2844 23.462 25.847 23.0931 25.6788 22.6207C25.457 21.9981 25.7851 21.4302 25.7991 21.4064L25.8101 21.3877L27.3358 21.5267L28.9897 21.6677L32.6142 23.6157C32.9179 23.7803 33.1486 24.0535 33.2603 24.381C33.372 24.7084 33.3566 25.066 33.2171 25.3826L31.5461 29.1383C31.5219 29.1927 31.4825 29.2389 31.4327 29.2713C31.3829 29.3037 31.3248 29.321 31.2654 29.321Z" fill="#2F2E41"/>
<path d="M28.5974 15.3594L26.8198 14.7427C26.8198 14.7427 25.7039 15.602 26.24 17.7337C26.5199 18.8338 26.4384 19.9949 26.0075 21.0449C25.9557 21.1748 25.8959 21.3013 25.8285 21.4239C25.8285 21.4239 27.8112 23.8223 29.6572 22.0406L28.9393 18.5801C28.9393 18.5801 30.0674 16.2845 28.5974 15.3594Z" fill="#34D186"/>
<path d="M28.2881 14.4621C28.0491 14.1036 27.8605 13.6064 28.1236 13.2653C28.3833 12.9285 28.8956 12.9781 29.2934 12.8291C29.8475 12.6216 30.1688 11.9692 30.0686 11.3849C29.9684 10.8006 29.5005 10.3163 28.943 10.1181C28.3855 9.91995 27.7569 9.9844 27.211 10.2126C26.539 10.4935 25.9625 11.037 25.7208 11.7254C25.479 12.4138 25.6083 13.2404 26.1097 13.7695C26.6474 14.3368 27.4912 14.4879 28.2717 14.4788" fill="#34D186"/>
<path d="M36.2382 18.5856C36.194 18.4876 36.1289 18.4004 36.0475 18.3302C35.9661 18.2601 35.8703 18.2087 35.7669 18.1797C35.6635 18.1507 35.555 18.1447 35.449 18.1623C35.3431 18.1798 35.2423 18.2205 35.1537 18.2813L28.6265 16.813L28.5454 18.4118L34.9869 19.3524C35.0987 19.4947 35.2588 19.5911 35.4367 19.6231C35.6146 19.6551 35.7981 19.6206 35.9524 19.5261C36.1066 19.4316 36.2209 19.2836 36.2736 19.1103C36.3263 18.937 36.3137 18.7503 36.2382 18.5856V18.5856Z" fill="#FFB8B8"/>
<path d="M29.7711 16.9601L29.3727 18.5786C29.3613 18.6247 29.3402 18.6677 29.3108 18.7049C29.2814 18.742 29.2443 18.7723 29.2021 18.7938C29.1599 18.8153 29.1136 18.8274 29.0663 18.8294C29.019 18.8313 28.9719 18.823 28.9281 18.805L27.3937 18.1747C27.1588 18.1154 26.957 17.9651 26.8326 17.7568C26.7081 17.5485 26.6712 17.2992 26.7299 17.0637C26.7886 16.8281 26.9382 16.6255 27.1457 16.5004C27.3533 16.3752 27.6019 16.3377 27.837 16.396L29.4825 16.5524C29.5296 16.5569 29.5752 16.5715 29.6162 16.5953C29.6572 16.619 29.6925 16.6513 29.7199 16.69C29.7473 16.7287 29.766 16.7729 29.7749 16.8195C29.7837 16.8661 29.7824 16.914 29.7711 16.9601V16.9601Z" fill="#34D186"/>
<path d="M35.4842 19.8558C35.7485 19.8558 35.9628 19.6411 35.9628 19.3762C35.9628 19.1112 35.7485 18.8965 35.4842 18.8965C35.2199 18.8965 35.0056 19.1112 35.0056 19.3762C35.0056 19.6411 35.2199 19.8558 35.4842 19.8558Z" fill="#34D186"/>
</svg>
