<svg width="57" height="47" viewBox="0 0 57 47" fill="none" xmlns="http://www.w3.org/2000/svg">
<path d="M38.8666 29.6C38.6721 29.6 38.4856 29.5228 38.3481 29.3852C38.2106 29.2477 38.1333 29.0612 38.1333 28.8667V18.6C38.1333 18.4055 38.2106 18.219 38.3481 18.0815C38.4856 17.944 38.6721 17.8667 38.8666 17.8667H42.5333C43.7003 17.8667 44.8194 18.3303 45.6446 19.1554C46.4697 19.9806 46.9333 21.0997 46.9333 22.2667V25.2C46.9333 25.3945 46.856 25.5811 46.7185 25.7186C46.581 25.8561 46.3945 25.9334 46.2 25.9334C46.0055 25.9334 45.8189 25.8561 45.6814 25.7186C45.5439 25.5811 45.4666 25.3945 45.4666 25.2V22.2667C45.4666 21.4887 45.1576 20.7426 44.6075 20.1925C44.0574 19.6424 43.3113 19.3334 42.5333 19.3334H39.6V28.8667C39.6 29.0612 39.5227 29.2477 39.3852 29.3852C39.2477 29.5228 39.0611 29.6 38.8666 29.6Z" fill="black" fill-opacity="0.4"/>
<path d="M49.8667 29.6H46.2C45.0331 29.6 43.9139 29.1365 43.0888 28.3113C42.2636 27.4861 41.8 26.367 41.8 25.2V22.2667C41.8 22.0722 41.8773 21.8857 42.0148 21.7482C42.1524 21.6106 42.3389 21.5334 42.5334 21.5334C42.7279 21.5334 42.9144 21.6106 43.0519 21.7482C43.1895 21.8857 43.2667 22.0722 43.2667 22.2667V25.2C43.2667 25.978 43.5758 26.7241 44.1259 27.2742C44.676 27.8243 45.4221 28.1334 46.2 28.1334H49.1334V18.6C49.1334 18.4055 49.2106 18.219 49.3482 18.0815C49.4857 17.944 49.6722 17.8667 49.8667 17.8667C50.0612 17.8667 50.2477 17.944 50.3853 18.0815C50.5228 18.219 50.6 18.4055 50.6 18.6V28.8667C50.6 29.0612 50.5228 29.2477 50.3853 29.3852C50.2477 29.5228 50.0612 29.6 49.8667 29.6Z" fill="black" fill-opacity="0.4"/>
<path d="M14.3313 30V28.938C15.1833 28.266 15.9873 27.588 16.7433 26.904C17.5113 26.208 18.1893 25.524 18.7773 24.852C19.3773 24.18 19.8453 23.52 20.1813 22.872C20.5293 22.224 20.7033 21.6 20.7033 21C20.7033 20.556 20.6253 20.142 20.4693 19.758C20.3253 19.374 20.0853 19.068 19.7493 18.84C19.4133 18.6 18.9573 18.48 18.3813 18.48C17.8293 18.48 17.3673 18.606 16.9953 18.858C16.6233 19.098 16.3413 19.422 16.1493 19.83C15.9693 20.238 15.8793 20.676 15.8793 21.144H14.4213C14.4213 20.316 14.5953 19.608 14.9433 19.02C15.2913 18.42 15.7653 17.964 16.3653 17.652C16.9653 17.34 17.6433 17.184 18.3993 17.184C19.5153 17.184 20.4273 17.502 21.1353 18.138C21.8553 18.762 22.2153 19.698 22.2153 20.946C22.2153 21.69 22.0293 22.428 21.6573 23.16C21.2853 23.88 20.8113 24.582 20.2353 25.266C19.6593 25.938 19.0413 26.568 18.3813 27.156C17.7333 27.744 17.1273 28.272 16.5633 28.74H22.6473V30H14.3313ZM29.5683 30.216C28.4523 30.216 27.4863 29.946 26.6703 29.406C25.8663 28.854 25.2483 28.092 24.8163 27.12C24.3843 26.136 24.1683 24.996 24.1683 23.7C24.1683 22.404 24.3843 21.27 24.8163 20.298C25.2483 19.314 25.8663 18.552 26.6703 18.012C27.4863 17.46 28.4523 17.184 29.5683 17.184C30.6843 17.184 31.6443 17.46 32.4483 18.012C33.2523 18.552 33.8703 19.314 34.3023 20.298C34.7343 21.27 34.9503 22.404 34.9503 23.7C34.9503 24.996 34.7343 26.136 34.3023 27.12C33.8703 28.092 33.2523 28.854 32.4483 29.406C31.6443 29.946 30.6843 30.216 29.5683 30.216ZM29.5683 28.884C30.3003 28.884 30.9543 28.68 31.5303 28.272C32.1183 27.852 32.5743 27.258 32.8983 26.49C33.2343 25.71 33.4023 24.78 33.4023 23.7C33.4023 22.62 33.2343 21.696 32.8983 20.928C32.5743 20.16 32.1183 19.572 31.5303 19.164C30.9543 18.744 30.3003 18.534 29.5683 18.534C28.8243 18.534 28.1643 18.744 27.5883 19.164C27.0123 19.572 26.5563 20.16 26.2203 20.928C25.8843 21.696 25.7163 22.62 25.7163 23.7C25.7163 24.78 25.8843 25.71 26.2203 26.49C26.5563 27.258 27.0123 27.852 27.5883 28.272C28.1643 28.68 28.8243 28.884 29.5683 28.884Z" fill="black" fill-opacity="0.4"/>
<path d="M5.38693 24.41V23.132H8.82493V19.856H10.1749V23.132H13.6129V24.41H10.1749V27.704H8.82493V24.41H5.38693Z" fill="black" fill-opacity="0.4"/>
<rect x="0.5" y="0.5" width="56" height="46" rx="7.5" stroke="black" stroke-opacity="0.35"/>
</svg>
