<svg width="160" height="128" viewBox="0 0 160 128" fill="none" xmlns="http://www.w3.org/2000/svg">
<g filter="url(#filter0_d_596_6567)">
<path d="M132 16H28C23.588 16 20 19.588 20 24V96C20 100.412 23.588 104 28 104H132C136.412 104 140 100.412 140 96V24C140 19.588 136.412 16 132 16ZM136 96C136 98.204 134.204 100 132 100H28C25.796 100 24 98.204 24 96V24C24 21.796 25.796 20 28 20H132C134.204 20 136 21.796 136 24V96Z" fill="#303C42"/>
<path d="M50.7078 57.0644C50.8182 57.1911 50.9658 57.2797 51.1295 57.3178C51.2932 57.3559 51.4647 57.3414 51.6198 57.2764C51.7713 57.2189 51.8974 57.1091 51.9751 56.9668C52.0529 56.8245 52.0772 56.6591 52.0438 56.5004L50.7878 51.0284C50.7856 51.0163 50.7829 51.0043 50.7798 50.9924C50.3278 49.4324 48.8998 49.1964 47.8638 49.1564H47.8398L40.7678 49.1484C40.4038 49.1484 40.0878 49.3884 40.0278 49.7204C40.0004 49.886 40.0345 50.0559 40.1236 50.198C40.2128 50.3402 40.3508 50.4449 40.5118 50.4924C44.8238 51.9244 48.3518 54.1964 50.7118 57.0644H50.7078ZM114.14 49.2124H109.54C107.7 49.2124 106.644 49.7764 106.008 51.1044L96.4758 71.0284C96.4249 71.1333 96.4032 71.25 96.4131 71.3661C96.4229 71.4823 96.4639 71.5936 96.5318 71.6884C96.6718 71.8884 96.9078 72.0044 97.1638 72.0044H102.564C102.712 72.0071 102.858 71.966 102.983 71.8864C103.108 71.8067 103.207 71.692 103.268 71.5564C103.928 69.9404 104.356 68.9124 104.496 68.5804H108.392L113.124 68.5884C113.28 69.1924 113.66 70.7964 113.816 71.4564C113.892 71.7764 114.196 72.0044 114.552 72.0044H119.26C119.488 72.0044 119.7 71.9084 119.844 71.7444C119.988 71.5804 120.044 71.3644 119.996 71.1604L114.876 49.7564C114.832 49.5964 114.735 49.4557 114.602 49.357C114.468 49.2583 114.306 49.2074 114.14 49.2124ZM106.436 63.9124L110.016 55.3604L110.472 57.3284L112.032 63.9124H106.432H106.436Z" fill="#303C42"/>
<path d="M67.2641 49.5199C67.1915 49.4221 67.0967 49.3428 66.9876 49.2885C66.8784 49.2343 66.758 49.2067 66.6361 49.2079H61.1561C61.0092 49.2049 60.8646 49.2449 60.7402 49.3231C60.6158 49.4013 60.517 49.5142 60.4561 49.6479L54.0441 64.7599L53.3561 62.4599C53.3468 62.4283 53.3347 62.3975 53.3201 62.3679C52.3081 60.1999 49.5881 56.8079 45.7961 54.1199C45.5361 53.9359 45.1801 53.9279 44.9121 54.0959C44.6441 54.2639 44.5241 54.5759 44.6161 54.8639L49.8801 71.4799C49.9329 71.6277 50.0309 71.7551 50.1601 71.8441C50.2893 71.9331 50.4432 71.9792 50.6001 71.9759L56.6721 71.9679C56.8149 71.9706 56.9555 71.933 57.0779 71.8594C57.2003 71.7859 57.2995 71.6793 57.3641 71.5519L67.3241 50.1759C67.3731 50.0709 67.393 49.9546 67.3817 49.8392C67.3705 49.7238 67.3285 49.6136 67.2601 49.5199H67.2641ZM76.3521 49.1879H71.1401C70.9683 49.182 70.7999 49.2363 70.664 49.3415C70.5281 49.4467 70.4333 49.5962 70.3961 49.7639L66.4401 71.1839C66.4225 71.2845 66.4286 71.3878 66.4577 71.4857C66.4869 71.5836 66.5384 71.6733 66.6081 71.7479C66.7521 71.9079 66.9601 71.9959 67.1841 71.9959H72.3921C72.7601 71.9959 73.0721 71.7519 73.1361 71.4159L77.0961 49.9999C77.1139 49.8993 77.108 49.796 77.0789 49.698C77.0497 49.6001 76.9981 49.5104 76.9281 49.4359C76.8545 49.357 76.7653 49.2942 76.6661 49.2515C76.567 49.2088 76.46 49.1872 76.3521 49.1879ZM90.7841 53.8079H90.9841C93.0241 53.8079 94.4641 54.2359 95.3721 54.5559C95.4761 54.5927 95.5866 54.6077 95.6966 54.6002C95.8067 54.5926 95.9141 54.5626 96.0121 54.5119C96.1071 54.4642 96.1899 54.3954 96.2544 54.3109C96.3189 54.2263 96.3632 54.1282 96.3841 54.0239L96.9921 50.7199C97.0561 50.3799 96.8361 50.0479 96.4801 49.9439C94.7901 49.4558 93.0392 49.2106 91.2801 49.2159C84.8521 49.2159 80.3401 52.1999 80.3041 56.4719C80.2641 59.6319 83.5321 61.3959 85.9921 62.4479C88.5201 63.5239 89.3681 64.2119 89.3561 65.1759C89.3401 66.6519 87.3321 67.3199 85.4761 67.3199C83.3888 67.3765 81.3135 66.9879 79.3881 66.1799C79.2832 66.1396 79.171 66.1217 79.0587 66.1272C78.9464 66.1327 78.8366 66.1616 78.7361 66.2119C78.6391 66.2591 78.5544 66.3281 78.4885 66.4134C78.4226 66.4988 78.3772 66.5982 78.3561 66.7039L77.7121 70.1839C77.686 70.3505 77.7216 70.5208 77.8122 70.6629C77.9028 70.8051 78.0421 70.9093 78.2041 70.9559C79.9801 71.5319 82.4601 71.8879 84.8441 71.9159H84.8481C91.6681 71.9119 96.1081 68.9599 96.1561 64.3959C96.1801 61.8879 94.4481 59.9959 90.7161 58.4359C88.4361 57.4119 87.0361 56.7319 87.0481 55.6919C87.0481 54.7559 88.3281 53.8119 90.7841 53.8119V53.8079Z" fill="#303C42"/>
</g>
<defs>
<filter id="filter0_d_596_6567" x="0" y="0" width="160" height="128" filterUnits="userSpaceOnUse" color-interpolation-filters="sRGB">
<feFlood flood-opacity="0" result="BackgroundImageFix"/>
<feColorMatrix in="SourceAlpha" type="matrix" values="0 0 0 0 0 0 0 0 0 0 0 0 0 0 0 0 0 0 127 0" result="hardAlpha"/>
<feOffset dy="4"/>
<feGaussianBlur stdDeviation="10"/>
<feComposite in2="hardAlpha" operator="out"/>
<feColorMatrix type="matrix" values="0 0 0 0 0 0 0 0 0 0 0 0 0 0 0 0 0 0 0.3 0"/>
<feBlend mode="normal" in2="BackgroundImageFix" result="effect1_dropShadow_596_6567"/>
<feBlend mode="normal" in="SourceGraphic" in2="effect1_dropShadow_596_6567" result="shape"/>
</filter>
</defs>
</svg>
